<svg width="26" height="19" viewBox="0 0 26 19" fill="none" xmlns="http://www.w3.org/2000/svg">
<g id="Group">
<path id="Vector" d="M17.1502 0.836314C17.0877 0.643662 16.9511 0.483797 16.7707 0.391849C16.5901 0.299799 16.3807 0.283406 16.1879 0.346028L12.993 1.38423C12.592 1.51457 12.3723 1.94539 12.5028 2.34648L12.6624 2.83809L4.53569 8.80757L1.32994 9.84913C1.13728 9.91175 0.97742 10.0483 0.885472 10.2287C0.793524 10.4092 0.777029 10.6188 0.839651 10.8115L2.78746 16.8051C2.89234 17.1278 3.1917 17.3329 3.51357 17.3329C3.59187 17.3329 3.6714 17.3208 3.7498 17.2954L6.95504 16.2538L8.60186 16.2625C8.93258 17.824 10.3215 18.9995 11.98 18.9995C13.6259 18.9995 15.0056 17.8417 15.3499 16.298L17.0389 16.3069L17.1985 16.7986C17.261 16.9912 17.3976 17.1511 17.5781 17.243C17.6865 17.2982 17.8054 17.3262 17.9248 17.3262C18.0043 17.3262 18.084 17.3138 18.1608 17.2889L21.3557 16.2508C21.7568 16.1204 21.9764 15.6896 21.8461 15.2885L17.1502 0.836314ZM4.00396 15.6067L2.52831 11.0656L4.39822 10.458L5.87366 14.9991L4.00396 15.6067ZM11.9799 17.4721C11.1743 17.4721 10.4837 16.9745 10.1966 16.2709L13.7562 16.2896C13.4647 16.9836 12.7785 17.4721 11.9799 17.4721ZM7.39167 14.7287L6.58847 12.2567L5.78528 9.78468L13.1593 4.36821L15.4208 11.3278L16.5414 14.7769L7.39167 14.7287ZM18.415 15.6003L18.3212 15.3118C18.3211 15.3113 18.321 15.3107 18.3208 15.3101L16.3032 9.10052L14.1913 2.60073L15.9336 2.03449L20.1573 15.0339L18.415 15.6003Z" fill="white"/>
<path id="Vector_2" d="M19.7217 4.54756C19.8329 4.60418 19.9512 4.63096 20.0679 4.63096C20.3459 4.63096 20.614 4.47863 20.7489 4.21388L22.1195 1.52469C22.3112 1.14896 22.1618 0.689013 21.7861 0.497481C21.4103 0.30605 20.9504 0.455224 20.7589 0.831059L19.3882 3.52025C19.1966 3.89609 19.3459 4.35603 19.7217 4.54756Z" fill="white"/>
<path id="Vector_3" d="M25.4617 11.8088L22.7721 10.4388C22.3963 10.2474 21.9365 10.3968 21.745 10.7727C21.5535 11.1485 21.7031 11.6083 22.0788 11.7998L24.7684 13.1698C24.8795 13.2263 24.9978 13.2531 25.1144 13.2531C25.3924 13.2531 25.6606 13.1007 25.7955 12.8359C25.987 12.4602 25.8376 12.0004 25.4617 11.8088Z" fill="white"/>
<path id="Vector_4" d="M21.5981 7.38176C21.703 7.70444 22.0024 7.90962 22.3242 7.90962C22.4025 7.90962 22.4821 7.8975 22.5605 7.87204L25.4307 6.93933C25.8317 6.80899 26.0513 6.37817 25.9209 5.97698C25.7906 5.57579 25.3597 5.35667 24.9586 5.4867L22.0883 6.41941C21.6873 6.54985 21.4678 6.98067 21.5981 7.38176Z" fill="white"/>
</g>
</svg>
