<svg width="14" height="14" viewBox="0 0 14 14" fill="none" xmlns="http://www.w3.org/2000/svg">
<g id="Group 48066">
<path id="Vector" d="M1.68339 10.9049C2.49852 12.4462 4.12618 13 7 13C10.9709 13 12.5626 11.9426 12.919 8.68374M1.68339 10.9049C1.19711 9.98532 1 8.71445 1 7C1 2.41176 2.41176 1 7 1C11.5882 1 13 2.41176 13 7C13 7.61729 12.9744 8.17713 12.919 8.68374M1.68339 10.9049L3.88409 8.70414C4.43542 8.15285 5.3293 8.15285 5.88061 8.70414L6.00174 8.82527C6.55304 9.37657 7.44696 9.37657 7.99826 8.82527L9.53115 7.29238C10.0824 6.74108 10.9764 6.74108 11.5277 7.29238L12.919 8.68374M6.076 4.77365C6.076 5.49294 5.49224 6.07671 4.77294 6.07671C4.05435 6.07671 3.47059 5.49294 3.47059 4.77365C3.47059 4.05435 4.05435 3.47059 4.77294 3.47059C5.49224 3.47059 6.076 4.05435 6.076 4.77365Z" stroke="#707070" stroke-opacity="0.7" stroke-width="1.3" stroke-linecap="round" stroke-linejoin="round"/>
</g>
</svg>
