<svg width="12" height="16" viewBox="0 0 12 16" fill="none" xmlns="http://www.w3.org/2000/svg">
<g id="Group 48065">
<path id="Vector" fill-rule="evenodd" clip-rule="evenodd" d="M2.59912 3.31798C2.59912 1.48551 4.10942 0 5.97242 0C7.83542 0 9.34566 1.48551 9.34566 3.31798V6.63598C9.34566 8.46843 7.83542 9.95392 5.97242 9.95392C4.10942 9.95392 2.59912 8.46843 2.59912 6.63598V3.31798ZM5.97242 1.32719C4.8546 1.32719 3.94844 2.2185 3.94844 3.31798V6.63598C3.94844 7.73543 4.8546 8.62675 5.97242 8.62675C7.09018 8.62675 7.99634 7.73543 7.99634 6.63598V3.31798C7.99634 2.2185 7.09018 1.32719 5.97242 1.32719Z" fill="#707070" fill-opacity="0.7"/>
<path id="Vector_2" d="M4.87251 13.7206C5.12564 13.7206 5.33088 13.5154 5.33088 13.2622V12.444C2.53615 12.1398 0.316419 9.9526 0.00383945 7.19669C-0.0378902 6.82875 0.266284 6.52734 0.63655 6.52734C1.00682 6.52734 1.30182 6.82927 1.35552 7.19566C1.68384 9.43608 3.63815 11.1573 6 11.1573C8.3618 11.1573 10.3161 9.43608 10.6445 7.19566C10.6982 6.82927 10.9932 6.52734 11.3634 6.52734C11.7337 6.52734 12.0379 6.82875 11.9962 7.19669C11.6837 9.95174 9.46523 12.1385 6.6717 12.4437V13.2622C6.6717 13.5154 6.87694 13.7206 7.13008 13.7206H8.40821C8.66135 13.7206 8.86659 13.9258 8.86659 14.1791V14.5851C8.86659 14.8382 8.66135 15.0435 8.40821 15.0435H3.62531C3.37217 15.0435 3.16694 14.8382 3.16694 14.5851V14.1791C3.16694 13.9258 3.37216 13.7206 3.62531 13.7206H4.87251Z" fill="#707070" fill-opacity="0.7"/>
</g>
</svg>
