<svg width="11" height="14" viewBox="0 0 11 14" fill="none" xmlns="http://www.w3.org/2000/svg">
<path id="Vector" d="M9.25506 9.13668C9.3823 9.00339 9.55272 8.92963 9.72961 8.9313C9.9065 8.93297 10.0757 9.00992 10.2008 9.14559C10.3259 9.28126 10.3968 9.46479 10.3984 9.65664C10.3999 9.8485 10.3319 10.0333 10.209 10.1713L8.06229 12.4997C7.17659 13.4603 5.97534 14 4.72278 14C3.47022 14 2.26896 13.4603 1.38327 12.4997C0.497577 11.5391 0 10.2362 0 8.87765C0 7.51911 0.497577 6.21622 1.38327 5.25559L5.20043 1.11694C5.5116 0.767502 5.88382 0.488779 6.29537 0.297033C6.70692 0.105288 7.14955 0.00435954 7.59745 0.000138138C8.04535 -0.00408326 8.48953 0.0884865 8.90409 0.272446C9.31865 0.456406 9.69528 0.728071 10.012 1.07159C10.3287 1.41511 10.5792 1.8236 10.7488 2.27324C10.9184 2.72287 11.0038 3.20464 10.9999 3.69043C10.996 4.17622 10.9029 4.65631 10.7261 5.10268C10.5493 5.54905 10.2924 5.95276 9.97019 6.29026L6.15438 10.4304C5.77479 10.8421 5.25994 11.0734 4.72311 11.0734C4.18629 11.0734 3.67144 10.8421 3.29185 10.4304C2.91225 10.0187 2.699 9.46026 2.699 8.87801C2.699 8.29576 2.91225 7.73736 3.29185 7.32565L6.39253 3.96263C6.45517 3.89464 6.52954 3.84071 6.6114 3.80389C6.69325 3.76708 6.78099 3.74812 6.86961 3.74808C6.95822 3.74805 7.04597 3.76695 7.12785 3.8037C7.20973 3.84044 7.28414 3.89433 7.34682 3.96226C7.4095 4.0302 7.45923 4.11086 7.49317 4.19964C7.52711 4.28843 7.5446 4.38359 7.54463 4.4797C7.54466 4.57581 7.52724 4.67099 7.49336 4.7598C7.45947 4.84861 7.4098 4.92931 7.34716 4.99729L4.2458 8.36031C4.18316 8.4283 4.13349 8.509 4.0996 8.59781C4.06572 8.68661 4.0483 8.78179 4.04833 8.8779C4.04836 8.97402 4.06585 9.06918 4.09979 9.15796C4.13373 9.24674 4.18346 9.3274 4.24614 9.39534C4.30882 9.46328 4.38323 9.51716 4.46511 9.55391C4.54699 9.59066 4.63474 9.60956 4.72335 9.60952C4.81197 9.60949 4.89971 9.59052 4.98156 9.55371C5.06342 9.5169 5.13779 9.46296 5.20043 9.39498L9.01624 5.25559C9.20955 5.05309 9.36373 4.81087 9.46981 4.54305C9.57588 4.27522 9.63171 3.98717 9.63405 3.6957C9.63638 3.40422 9.58517 3.11516 9.48341 2.84538C9.38164 2.5756 9.23136 2.33051 9.04132 2.12439C8.85129 1.91828 8.62531 1.75528 8.37658 1.64491C8.12784 1.53453 7.86133 1.47899 7.59259 1.48152C7.32386 1.48405 7.05827 1.54461 6.81134 1.65966C6.56441 1.77471 6.34108 1.94194 6.15438 2.1516L2.3379 6.29099C2.01816 6.62914 1.76352 7.03278 1.58874 7.47851C1.41396 7.92423 1.32251 8.40316 1.31972 8.88751C1.31692 9.37186 1.40282 9.85199 1.57244 10.3001C1.74206 10.7481 1.99202 11.1552 2.30782 11.4977C2.62362 11.8401 2.99897 12.1112 3.41211 12.2951C3.82524 12.479 4.26793 12.5721 4.7145 12.569C5.16107 12.5659 5.60263 12.4666 6.01356 12.277C6.42448 12.0874 6.79661 11.8111 7.10833 11.4643L9.25506 9.13668Z" fill="#707070" fill-opacity="0.7"/>
</svg>
