<svg width="17" height="17" viewBox="0 0 17 17" fill="none" xmlns="http://www.w3.org/2000/svg">
<path id="Vector" d="M0.972824 7.64011L0.972403 7.63968C0.814322 7.4796 0.79607 7.18094 0.99679 6.97779L0.972824 7.64011ZM0.972824 7.64011L4.51125 11.2282L4.5126 11.2296M0.972824 7.64011L4.5126 11.2296M4.5126 11.2296C4.66115 11.3809 4.93717 11.4035 5.13542 11.2029C5.30409 11.0317 5.32036 10.7806 5.21495 10.6097L4.86454 10.0417M4.5126 11.2296L4.86454 10.0417M4.86454 10.0417L5.3333 9.56653M4.86454 10.0417L5.3333 9.56653M5.3333 9.56653L6.89234 7.98625L7.49779 7.37255M5.3333 9.56653L7.49779 7.37255M7.49779 7.37255L7.49835 7.37312M7.49779 7.37255L7.49835 7.37312M7.49835 7.37312L7.86362 7.00275L9.42168 5.42297L9.90504 4.93286L10.4849 5.3038C10.636 5.40045 10.8676 5.39255 11.0368 5.22213C11.2386 5.01699 11.2196 4.71746 11.0615 4.55726L11.0615 4.55722L7.52289 0.969934C7.52281 0.969848 7.52273 0.969763 7.52264 0.969677C7.52261 0.969649 7.52258 0.969621 7.52256 0.969592C7.37068 0.816185 7.09471 0.795851 6.89757 0.994633C6.72851 1.16636 6.71349 1.41886 6.81754 1.58651L7.1705 2.15519L6.70046 2.63168L2.61199 6.77634L2.13035 7.26459L1.55133 6.89705C1.3957 6.79826 1.1644 6.80835 0.996878 6.9777L7.49835 7.37312ZM9.64481 9.64321L9.60717 9.96588C9.58724 10.1368 9.64065 10.2983 9.75417 10.4131L9.75455 10.4135L15.2634 15.9954L15.2635 15.9955C15.3668 16.1002 15.4976 16.15 15.6283 16.15C15.759 16.15 15.8899 16.1002 15.9931 15.9955C16.2024 15.7834 16.202 15.4348 15.9934 15.2236L15.9931 15.2233L10.4862 9.64136C10.3336 9.48669 10.1106 9.4485 9.92393 9.52654L9.64481 9.64321Z" stroke="#F05A35" stroke-width="1.7"/>
</svg>
