<svg width="20" height="22" viewBox="0 0 20 22" fill="none" xmlns="http://www.w3.org/2000/svg">
<g id="Group 48194">
<path id="Vector" d="M6 1V4M14 1V4M1.5 8.09H18.5M19 7.5V16C19 19 17.5 21 14 21H6C2.5 21 1 19 1 16V7.5C1 4.5 2.5 2.5 6 2.5H14C17.5 2.5 19 4.5 19 7.5Z" stroke="url(#paint0_linear_244_12564)" stroke-opacity="0.7" stroke-width="2" stroke-miterlimit="10" stroke-linecap="round" stroke-linejoin="round"/>
<path id="Vector_2" d="M13.8556 12.7031H13.8646M13.8556 15.7031H13.8646M10.1556 12.7031H10.1656M10.1556 15.7031H10.1656M6.45459 12.7031H6.46459M6.45459 15.7031H6.46459" stroke="url(#paint1_linear_244_12564)" stroke-opacity="0.7" stroke-width="2" stroke-linecap="round" stroke-linejoin="round"/>
</g>
<defs>
<linearGradient id="paint0_linear_244_12564" x1="10" y1="1" x2="10" y2="21" gradientUnits="userSpaceOnUse">
<stop stop-color="#4C0497"/>
<stop offset="1" stop-color="#4C0497" stop-opacity="0.5"/>
</linearGradient>
<linearGradient id="paint1_linear_244_12564" x1="10.1596" y1="12.7031" x2="10.1596" y2="15.7031" gradientUnits="userSpaceOnUse">
<stop stop-color="#4C0497"/>
<stop offset="1" stop-color="#4C0497" stop-opacity="0.5"/>
</linearGradient>
</defs>
</svg>
