<svg width="19" height="19" viewBox="0 0 19 19" fill="none" xmlns="http://www.w3.org/2000/svg">
<path id="Vector" d="M18 14.8805C18 15.1865 17.9319 15.501 17.7872 15.807C17.6425 16.113 17.4552 16.402 17.2083 16.674C16.7912 17.133 16.3315 17.4645 15.8122 17.677C15.3015 17.8895 14.7481 18 14.1522 18C13.2839 18 12.356 17.796 11.3771 17.3795C10.3981 16.963 9.41913 16.402 8.44867 15.6965C7.45958 14.9741 6.52623 14.1785 5.65648 13.3165C4.79565 12.4512 4.00169 11.5221 3.28142 10.537C2.58338 9.568 2.02153 8.599 1.61292 7.6385C1.20431 6.6695 1 5.743 1 4.859C1 4.281 1.10215 3.7285 1.30646 3.2185C1.51077 2.7 1.83425 2.224 2.28543 1.799C2.83025 1.2635 3.42614 1 4.05608 1C4.29444 1 4.5328 1.051 4.74562 1.153C4.96695 1.255 5.16274 1.408 5.31597 1.629L7.29094 4.4085C7.44417 4.621 7.55483 4.8165 7.63145 5.0035C7.70806 5.182 7.75063 5.3605 7.75063 5.522C7.75063 5.726 7.69104 5.93 7.57186 6.1255C7.46119 6.321 7.29945 6.525 7.09514 6.729L6.44817 7.4005C6.35453 7.494 6.31197 7.6045 6.31197 7.7405C6.31197 7.8085 6.32048 7.868 6.33751 7.936C6.36305 8.004 6.38858 8.055 6.40561 8.106C6.55884 8.3865 6.82273 8.752 7.1973 9.194C7.58037 9.636 7.98898 10.0865 8.43165 10.537C8.89134 10.9875 9.334 11.404 9.78518 11.7865C10.2278 12.1605 10.5939 12.4155 10.8833 12.5685C10.9259 12.5855 10.977 12.611 11.0366 12.6365C11.1047 12.662 11.1728 12.6705 11.2494 12.6705C11.3941 12.6705 11.5048 12.6195 11.5984 12.526L12.2454 11.8885C12.4582 11.676 12.6625 11.5145 12.8583 11.4125C13.0541 11.2935 13.2499 11.234 13.4627 11.234C13.6244 11.234 13.7947 11.268 13.982 11.3445C14.1693 11.421 14.365 11.5315 14.5779 11.676L17.3956 13.6735C17.6169 13.8265 17.7702 14.005 17.8638 14.2175C17.9489 14.43 18 14.6425 18 14.8805Z" stroke="url(#paint0_linear_244_146)" stroke-opacity="0.7" stroke-width="2" stroke-miterlimit="10"/>
<defs>
<linearGradient id="paint0_linear_244_146" x1="9.5" y1="1" x2="9.5" y2="18" gradientUnits="userSpaceOnUse">
<stop stop-color="#4C0497"/>
<stop offset="1" stop-color="#4C0497" stop-opacity="0.5"/>
</linearGradient>
</defs>
</svg>
