<svg width="29" height="26" viewBox="0 0 29 26" fill="none" xmlns="http://www.w3.org/2000/svg">
<g id="Vector">
<path fill-rule="evenodd" clip-rule="evenodd" d="M8.97245 3.75281C9.30752 2.14065 10.7713 1 12.4484 1H16.5516C18.2286 1 19.6924 2.14065 20.0276 3.75281C20.1049 4.12497 20.4489 4.39798 20.8067 4.39798H20.8273L20.8479 4.39886C22.6103 4.47439 23.9641 4.68636 25.0943 5.41302C25.8063 5.87086 26.4188 6.4599 26.8961 7.14725C27.49 8.00242 27.7519 8.98393 27.8774 10.171C28 11.3308 28 12.7846 28 14.626V14.7307C28 16.5721 28 18.0258 27.8774 19.1856C27.7519 20.3727 27.49 21.3542 26.8961 22.2094C26.4188 22.8967 25.8063 23.4858 25.0943 23.9436C24.2108 24.5116 23.198 24.7621 21.9696 24.8823C20.7669 25 19.2583 25 17.3424 25H11.6576C9.7417 25 8.23307 25 7.03037 24.8823C5.80197 24.7621 4.78918 24.5116 3.90577 23.9436C3.19368 23.4858 2.58113 22.8967 2.10385 22.2094C1.51001 21.3542 1.2481 20.3727 1.12259 19.1856C0.999975 18.0258 0.999988 16.5721 1 14.7307V14.626C0.999988 12.7846 0.999975 11.3308 1.12259 10.171C1.2481 8.98393 1.51001 8.00242 2.10385 7.14725C2.58113 6.4599 3.19368 5.87086 3.90577 5.41302C5.03597 4.68636 6.3897 4.47439 8.15215 4.39886L8.17272 4.39798H8.1933C8.55106 4.39798 8.89509 4.12498 8.97245 3.75281ZM12.4484 2.84615C11.6433 2.84615 10.97 3.39137 10.8183 4.12132C10.5725 5.3035 9.50312 6.23306 8.21632 6.24404C6.52272 6.31777 5.61557 6.52167 4.93904 6.95665C4.43225 7.28249 3.99828 7.70043 3.66115 8.18593C3.31435 8.68535 3.10595 9.324 2.99628 10.3613C2.8849 11.4149 2.88372 12.773 2.88372 14.6783C2.88372 16.5836 2.8849 17.9418 2.99628 18.9953C3.10595 20.0326 3.31435 20.6713 3.66115 21.1707C3.99828 21.6562 4.43225 22.0742 4.93904 22.4C5.46338 22.7371 6.13432 22.9392 7.21759 23.0453C8.31573 23.1527 9.73033 23.1538 11.7093 23.1538H17.2907C19.2697 23.1538 20.6843 23.1527 21.7825 23.0453C22.8657 22.9392 23.5366 22.7371 24.061 22.4C24.5677 22.0742 25.0017 21.6562 25.3388 21.1707C25.6857 20.6713 25.894 20.0326 26.0038 18.9953C26.1151 17.9418 26.1163 16.5836 26.1163 14.6783C26.1163 12.773 26.1151 11.4149 26.0038 10.3613C25.894 9.324 25.6857 8.68535 25.3388 8.18593C25.0017 7.70043 24.5677 7.28249 24.061 6.95665C23.3844 6.52167 22.4773 6.31777 20.7837 6.24404C19.4969 6.23306 18.4274 5.3035 18.1818 4.12132C18.03 3.39137 17.3567 2.84615 16.5516 2.84615H12.4484ZM14.5 11.4615C12.9395 11.4615 11.6744 12.7014 11.6744 14.2308C11.6744 15.7601 12.9395 17 14.5 17C16.0605 17 17.3256 15.7601 17.3256 14.2308C17.3256 12.7014 16.0605 11.4615 14.5 11.4615ZM9.7907 14.2308C9.7907 11.6817 11.8991 9.61539 14.5 9.61539C17.1009 9.61539 19.2093 11.6817 19.2093 14.2308C19.2093 16.7798 17.1009 18.8462 14.5 18.8462C11.8991 18.8462 9.7907 16.7798 9.7907 14.2308ZM21.093 10.5385C21.093 10.0287 21.5147 9.61539 22.0349 9.61539H23.2907C23.8109 9.61539 24.2326 10.0287 24.2326 10.5385C24.2326 11.0482 23.8109 11.4615 23.2907 11.4615H22.0349C21.5147 11.4615 21.093 11.0482 21.093 10.5385Z" fill="#707070" fill-opacity="0.7"/>
<path d="M20.8294 4.34803L20.8294 4.34798H20.8273H20.8067C20.4728 4.34798 20.1491 4.0918 20.0765 3.74264C19.7363 2.106 18.251 0.95 16.5516 0.95H12.4484C10.749 0.95 9.26366 2.10599 8.92349 3.74264C8.85092 4.09181 8.52716 4.34798 8.1933 4.34798H8.17272V4.34794L8.1706 4.34803L8.15003 4.3489L8.15001 4.3489C6.38609 4.4245 5.0208 4.63668 3.87872 5.37096C3.16121 5.83229 2.54386 6.42591 2.06278 7.11873C1.46222 7.98359 1.19882 8.97449 1.07287 10.1658C0.949978 11.3282 0.949988 12.7841 0.95 14.623L0.95 14.626V14.7307L0.95 14.7337C0.949988 16.5726 0.949978 18.0285 1.07287 19.1909C1.19882 20.3821 1.46222 21.373 2.06278 22.2379C2.54386 22.9307 3.16121 23.5243 3.87872 23.9857C4.77161 24.5598 5.79335 24.8115 7.0255 24.9321C8.23063 25.05 9.74123 25.05 11.6549 25.05H11.6576H17.3424H17.3451C19.2587 25.05 20.7693 25.05 21.9744 24.9321C23.2066 24.8115 24.2284 24.5598 25.1213 23.9857C25.8388 23.5243 26.4561 22.9307 26.9372 22.2379C27.5378 21.373 27.8011 20.3821 27.9272 19.1909C28.05 18.0285 28.05 16.5725 28.05 14.7335V14.7307V14.626V14.6231C28.05 12.7841 28.05 11.3282 27.9272 10.1658C27.8011 8.9745 27.5378 7.98359 26.9372 7.11873C26.4561 6.42591 25.8388 5.83229 25.1213 5.37097L25.0943 5.41302L25.1213 5.37096C23.9792 4.63668 22.6139 4.4245 20.85 4.3489L20.85 4.3489L20.8294 4.34803ZM4.96608 22.3579L4.93904 22.4L4.96607 22.3579C4.46473 22.0357 4.03555 21.6223 3.70222 21.1422C3.36215 20.6524 3.15523 20.0232 3.046 18.9901C2.93497 17.9398 2.93372 16.5847 2.93372 14.6783C2.93372 12.772 2.93497 11.4169 3.046 10.3665C3.15523 9.33343 3.36215 8.70418 3.70221 8.21445C4.03555 7.73442 4.46473 7.32105 4.96608 6.99871C5.63063 6.57143 6.52602 6.36773 8.21762 6.29403C9.5281 6.28243 10.6169 5.33591 10.8672 4.13149C11.0139 3.42592 11.6658 2.89615 12.4484 2.89615H16.5516C17.3343 2.89615 17.9861 3.42592 18.1328 4.13149C18.3831 5.33591 19.4719 6.28243 20.7824 6.29403C22.474 6.36773 23.3693 6.57143 24.034 6.99871C24.5353 7.32105 24.9645 7.73442 25.2977 8.21445L25.3388 8.18593L25.2977 8.21445C25.6379 8.70419 25.8447 9.33343 25.954 10.3665C26.0651 11.4169 26.0663 12.7719 26.0663 14.6783C26.0663 16.5847 26.0651 17.9398 25.954 18.9901C25.8447 20.0232 25.6379 20.6524 25.2977 21.1422L25.3388 21.1707L25.2977 21.1422C24.9645 21.6223 24.5353 22.0357 24.034 22.3579C23.519 22.689 22.8571 22.8898 21.7776 22.9955C20.6824 23.1027 19.2707 23.1038 17.2907 23.1038H11.7093C9.72932 23.1038 8.3176 23.1027 7.22246 22.9955C6.14293 22.8898 5.48095 22.689 4.96608 22.3579ZM11.7244 14.2308C11.7244 12.73 12.9662 11.5115 14.5 11.5115C16.0338 11.5115 17.2756 12.73 17.2756 14.2308C17.2756 15.7316 16.0338 16.95 14.5 16.95C12.9662 16.95 11.7244 15.7316 11.7244 14.2308ZM14.5 9.56538C11.8725 9.56538 9.7407 11.6532 9.7407 14.2308C9.7407 16.8084 11.8725 18.8962 14.5 18.8962C17.1276 18.8962 19.2593 16.8084 19.2593 14.2308C19.2593 11.6532 17.1276 9.56538 14.5 9.56538ZM22.0349 9.56538C21.4881 9.56538 21.043 10.0001 21.043 10.5385C21.043 11.0768 21.4881 11.5115 22.0349 11.5115H23.2907C23.8375 11.5115 24.2826 11.0768 24.2826 10.5385C24.2826 10.0001 23.8375 9.56538 23.2907 9.56538H22.0349Z" stroke="#707070" stroke-opacity="0.7" stroke-width="0.1"/>
</g>
</svg>
