<svg width="20" height="20" viewBox="0 0 20 20" fill="none" xmlns="http://www.w3.org/2000/svg">
<path d="M10.0931 1.55749L10.0931 1.55749C10.1675 1.0978 10.6018 0.786663 11.0606 0.860941L11.0648 0.861616L11.0647 0.861675C11.0675 0.862208 11.0713 0.862918 11.0758 0.863771C11.1061 0.869507 11.1704 0.881696 11.2072 0.889892L11.2072 0.8899C11.289 0.908108 11.402 0.935912 11.5422 0.976759L10.0931 1.55749ZM10.0931 1.55749C10.0188 2.01649 10.3385 2.44629 10.791 2.52401C10.8441 2.5359 10.9712 2.56525 11.071 2.59433L11.071 2.59434C11.2791 2.65493 11.591 2.76096 11.9768 2.93782C12.7472 3.29102 13.816 3.92838 14.945 5.05738L14.945 5.05738C16.074 6.18638 16.7114 7.25523 17.0646 8.02564L17.0646 8.02565C17.2414 8.41139 17.3474 8.72326 17.4081 8.93132L10.0931 1.55749ZM18.5961 7.32349L18.5961 7.3235C18.81 7.79009 18.944 8.17978 19.0256 8.46023M18.5961 7.32349L17.6273 9.19157L17.4794 9.21621C17.4795 9.21687 17.4796 9.21754 17.4797 9.21819C17.5568 9.67428 17.9876 9.98328 18.4449 9.90925C18.9086 9.83418 19.2128 9.38177 19.1392 8.92704L19.1392 8.92704L19.1386 8.9236L19.1332 8.8948L19.1331 8.89426C19.1283 8.86912 19.1215 8.83593 19.1125 8.79523C19.0943 8.7135 19.0665 8.6005 19.0256 8.46023M18.5961 7.32349C18.1677 6.38913 17.4203 5.14998 16.1364 3.86605C14.8524 2.58212 13.6133 1.83468 12.6789 1.40631C12.2123 1.19239 11.8226 1.05844 11.5422 0.976762L18.5961 7.32349ZM19.0256 8.46023L18.8816 8.50216L19.0256 8.46014C19.0256 8.46017 19.0256 8.4602 19.0256 8.46023Z" fill="currentColor" stroke="currentColor" stroke-width="0.3"/>
<path d="M15.7944 8.49749C15.781 8.46222 15.7646 8.42133 15.7448 8.37508C15.7448 8.37507 15.7448 8.37506 15.7448 8.37505L15.7944 8.49749ZM15.7944 8.49749L15.8015 8.49545L15.8406 8.63222M15.7944 8.49749L15.8406 8.63222M15.8406 8.63222L15.8417 8.6359L15.8417 8.63591L15.8429 8.6397L15.8427 8.63974M15.8406 8.63222L15.8427 8.63974M15.8427 8.63974C15.9705 9.08707 15.7115 9.55327 15.2642 9.68108L15.2641 9.68109C14.8216 9.8075 14.3605 9.55542 14.227 9.11674L14.2248 9.11045C14.2205 9.09861 14.2115 9.07447 14.1962 9.03872C14.1646 8.96496 14.1056 8.84036 14.0059 8.67184C13.8067 8.3353 13.4427 7.81967 12.8051 7.18197C12.8051 7.18197 12.8051 7.18196 12.8051 7.18196M15.8427 8.63974L11.3916 5.85209C11.7393 6.05792 12.2649 6.42971 12.9112 7.0759L12.8051 7.18196M12.8051 7.18196C12.1674 6.54427 11.6517 6.18034 11.3152 5.98117M12.8051 7.18196L11.3152 5.98117M11.3152 5.98117C11.1466 5.88143 11.0221 5.82242 10.9483 5.79082L10.9483 5.79081C10.9117 5.77514 10.8876 5.76618 10.8768 5.76233M11.3152 5.98117L10.8773 5.7625L10.8768 5.76233M10.8768 5.76233L10.8701 5.76003M10.8768 5.76233L10.8701 5.76003M10.8701 5.76003C10.4316 5.62641 10.1794 5.16542 10.306 4.72287L10.8701 5.76003ZM11.3443 4.14347C10.898 4.01764 10.4335 4.27652 10.306 4.72284L11.3443 4.14347ZM11.6119 4.24223L11.5529 4.3801L15.4557 7.81375C15.1817 7.35059 14.7296 6.72381 13.9964 5.99063C13.2632 5.25745 12.6365 4.80538 12.1733 4.53127C11.942 4.39436 11.7524 4.30241 11.6119 4.24223Z" fill="currentColor" stroke="currentColor" stroke-width="0.3"/>
<path d="M1.00652 7.14347L0.856629 7.13779C0.782498 9.09343 1.28948 12.3262 4.48274 15.5195C7.67596 18.7128 10.9089 19.2198 12.8645 19.1456C14.215 19.0945 15.3521 18.3278 16.194 17.4858L16.088 17.3798L16.194 17.4858C17.8011 15.8786 17.6979 13.1383 15.659 12.0004L14.5854 11.4012C13.2605 10.6617 11.6002 10.9778 10.5133 12.0437C10.4905 12.0582 10.4153 12.0997 10.2913 12.1057L10.2913 12.1057C10.1096 12.1146 9.60127 12.0574 8.77307 11.2291L8.77306 11.2291C7.94459 10.4007 7.88763 9.89222 7.89648 9.71076C7.90252 9.5869 7.94402 9.51178 7.95857 9.48896C9.02453 8.40204 9.34046 6.74177 8.60106 5.41684L8.0019 4.34323L7.87092 4.41633L8.0019 4.34322C6.864 2.30433 4.12357 2.2011 2.51642 3.80825C1.6745 4.65017 0.907834 5.78723 0.856629 7.13778L1.00652 7.14347ZM6.53068 5.16428L6.66167 5.09118L6.53068 5.16429L7.12988 6.2379C7.46643 6.84097 7.35808 7.70692 6.74178 8.32326L6.74177 8.32326C6.66372 8.40133 6.25202 8.84589 6.2137 9.62844L6.36352 9.63578L6.2137 9.62844C6.17436 10.432 6.53775 11.3765 7.58178 12.4205C8.62539 13.4641 9.56957 13.8277 10.3732 13.7886C11.1556 13.7505 11.6006 13.3389 11.679 13.2604C12.2953 12.6441 13.1613 12.5359 13.7644 12.8724L14.838 13.4716C15.7291 13.9689 15.9638 15.3333 15.0026 16.2945L15.0026 16.2945C14.2993 16.9979 13.5431 17.4339 12.8007 17.4621L12.8063 17.6119L12.8007 17.4621C11.2331 17.5215 8.48275 17.1368 5.67407 14.3281L5.56801 14.4342L5.67407 14.3281C2.86542 11.5195 2.4808 8.76908 2.54023 7.20161C2.56837 6.45916 3.00436 5.70297 3.70775 4.99958C4.66897 4.03836 6.03331 4.27307 6.53068 5.16428Z" fill="currentColor" stroke="currentColor" stroke-width="0.3"/>
</svg>
