<svg width="16" height="15" viewBox="0 0 16 15" fill="none" xmlns="http://www.w3.org/2000/svg">
<path d="M10.0284 4.90165C10.2406 4.68228 10.2612 4.34102 10.0903 4.09797L10.0955 4.09253L10.0284 4.0231C10.0283 4.02307 10.0283 4.02305 10.0283 4.02302L9.95638 3.94873L9.11776 3.08199C10.343 2.01709 11.5743 1.96738 12.5071 2.40821C13.5883 2.91918 14.3884 4.13986 14.3884 5.60399C14.3884 7.10607 13.7951 8.2648 12.9367 9.26416C12.2269 10.0904 11.3689 10.7745 10.5236 11.4483C10.349 11.5875 10.175 11.7262 10.0029 11.8657L10.0028 11.8655L9.92546 11.9286C9.92457 11.9293 9.92367 11.9301 9.92278 11.9308C9.92203 11.9314 9.92128 11.932 9.92054 11.9326C9.56569 12.2218 9.25533 12.4702 8.95795 12.6499L8.95794 12.6499C8.65969 12.8302 8.43256 12.9041 8.25 12.9041C8.06744 12.9041 7.84031 12.8302 7.54206 12.6499L7.54205 12.6499C7.24564 12.4708 6.93633 12.2234 6.58298 11.9355L9.95655 4.83213M10.0284 4.90165L9.95655 4.83213M10.0284 4.90165C10.0284 4.90164 10.0284 4.90164 10.0284 4.90163L9.95655 4.83213M10.0284 4.90165C9.81615 5.12123 9.48436 5.14399 9.2473 4.96989L9.31315 4.90178L9.31759 4.89719C9.5142 5.03348 9.78288 5.01178 9.95655 4.83213M7.81681 3.35835C6.44955 1.93583 5.01919 1.81258 3.95015 2.31779C2.85626 2.83476 2.04835 4.04849 2.01285 5.50399H2.11163V5.60399M7.81681 3.35835L6.43644 11.9452C6.26533 11.8065 6.09179 11.6682 5.91734 11.5292C5.0714 10.8549 4.204 10.1635 3.48745 9.32931C2.63709 8.33928 2.03827 7.18774 2.01249 5.70399H2.11163V5.60399M7.81681 3.35835L7.81501 3.36013L7.74593 3.42887L7.74825 3.43133M2.11163 5.60399C2.11163 7.10607 2.70493 8.26479 3.56331 9.26416C4.27309 10.0905 5.1312 10.7745 5.97655 11.4484C6.15108 11.5875 6.32507 11.7262 6.4971 11.8657M2.11163 5.60399C2.11163 4.13986 2.91168 2.91918 3.99288 2.40821C5.01866 1.92343 6.40551 2.03188 7.74825 3.43133M7.74825 3.43133L7.75406 3.43747M7.74825 3.43133C7.7502 3.43336 7.75215 3.43539 7.7541 3.43743L7.75406 3.43747M7.75406 3.43747L7.7533 3.43825L7.81531 3.50233M7.75406 3.43747L7.81235 3.49916L7.81286 3.4997L7.81531 3.50233M7.81531 3.50233L7.8828 3.57483L7.88404 3.57359M7.81531 3.50233L7.82044 3.50764L7.82056 3.50776L7.82059 3.50779L7.88404 3.57359M7.88404 3.57359L7.89233 3.58219L7.89245 3.58206M7.88404 3.57359L7.88415 3.57348L7.89245 3.58206M7.89245 3.58206L9.10215 4.83229L9.16937 4.76276L9.17169 4.76036L7.962 3.51013L7.89245 3.58206ZM13.0131 1.27614C11.5769 0.597388 9.81844 0.79632 8.25 2.20661C6.68156 0.79632 4.92308 0.597389 3.48685 1.27614C1.98117 1.98771 0.93672 3.61949 0.900948 5.50399H0.9V5.60399V5.70399H0.900715C0.927087 7.54368 1.67972 8.95337 2.65519 10.089C3.44843 11.0124 4.42027 11.786 5.27066 12.4629C5.46241 12.6155 5.648 12.7633 5.82396 12.9067C5.82418 12.9069 5.8244 12.907 5.82462 12.9072C5.82748 12.9095 5.83034 12.9119 5.83321 12.9142L5.90469 12.9725L5.90472 12.9724C6.22712 13.2345 6.57485 13.5107 6.92823 13.7241L6.97994 13.6385L6.92823 13.7241C7.28476 13.9395 7.69744 14.1233 8.15 14.1473V14.15H8.25H8.35V14.1473C8.80256 14.1233 9.21524 13.9395 9.57177 13.7241C9.92518 13.5107 10.2729 13.2345 10.5953 12.9724L10.5953 12.9725L10.6754 12.9072L10.6754 12.9072C10.6775 12.9055 10.6797 12.9037 10.6818 12.902C10.8562 12.76 11.0398 12.6137 11.2296 12.4627C12.0799 11.7859 13.0517 11.0124 13.8448 10.089C14.8203 8.95336 15.5729 7.54368 15.5993 5.70399H15.6V5.60399V5.50399H15.5991C15.5633 3.61949 14.5188 1.98771 13.0131 1.27614ZM10.0192 4.17145L10.0283 4.16207L10.0192 4.17145Z" fill="#F05A35" stroke="#F05A35" stroke-width="0.2"/>
</svg>
