<svg width="25" height="25" viewBox="0 0 25 25" fill="none" xmlns="http://www.w3.org/2000/svg">
<g id="Group 47722">
<path id="Vector" d="M5.15 10.4H7.25C9.35 10.4 10.4 9.35 10.4 7.25V5.15C10.4 3.05 9.35 2 7.25 2H5.15C3.05 2 2 3.05 2 5.15V7.25C2 9.35 3.05 10.4 5.15 10.4Z" stroke="white" stroke-width="2.5" stroke-miterlimit="10" stroke-linecap="round" stroke-linejoin="round"/>
<path id="Vector_2" d="M17.7501 10.4H19.8501C21.9501 10.4 23.0001 9.35 23.0001 7.25V5.15C23.0001 3.05 21.9501 2 19.8501 2H17.7501C15.6501 2 14.6001 3.05 14.6001 5.15V7.25C14.6001 9.35 15.6501 10.4 17.7501 10.4Z" stroke="white" stroke-width="2.5" stroke-miterlimit="10" stroke-linecap="round" stroke-linejoin="round"/>
<path id="Vector_3" d="M17.7501 23.0016H19.8501C21.9501 23.0016 23.0001 21.9516 23.0001 19.8516V17.7516C23.0001 15.6516 21.9501 14.6016 19.8501 14.6016H17.7501C15.6501 14.6016 14.6001 15.6516 14.6001 17.7516V19.8516C14.6001 21.9516 15.6501 23.0016 17.7501 23.0016Z" stroke="white" stroke-width="2.5" stroke-miterlimit="10" stroke-linecap="round" stroke-linejoin="round"/>
<path id="Vector_4" d="M5.15 23.0016H7.25C9.35 23.0016 10.4 21.9516 10.4 19.8516V17.7516C10.4 15.6516 9.35 14.6016 7.25 14.6016H5.15C3.05 14.6016 2 15.6516 2 17.7516V19.8516C2 21.9516 3.05 23.0016 5.15 23.0016Z" stroke="white" stroke-width="2.5" stroke-miterlimit="10" stroke-linecap="round" stroke-linejoin="round"/>
</g>
</svg>
