<svg width="22" height="22" viewBox="0 0 22 22" fill="none" xmlns="http://www.w3.org/2000/svg">
<g id="Group 48393">
<path id="Vector" d="M19.0301 7.69118L14.3604 2.98529M19.0301 7.69118L13.1948 13.5716C12.4258 14.3466 11.4925 14.9584 10.4209 15.1446C9.33894 15.3327 7.99623 15.3953 7.3559 14.75C6.71559 14.1047 6.7777 12.7515 6.96431 11.6612C7.14912 10.5813 7.75622 9.64071 8.52514 8.86576L14.3604 2.98529M19.0301 7.69118C19.0301 7.69118 22.5322 4.16176 20.1974 1.80882C17.8626 -0.544118 14.3604 2.98529 14.3604 2.98529M20.846 11C20.846 18.6471 18.5112 21 10.923 21C3.33482 21 1 18.6471 1 11C1 3.35294 3.33482 1 10.923 1" stroke="white" stroke-width="2" stroke-linecap="round" stroke-linejoin="round"/>
</g>
</svg>
