<svg width="19" height="16" viewBox="0 0 19 16" fill="none" xmlns="http://www.w3.org/2000/svg">
<g id="Group 48312">
<g id="Vector">
<path fill-rule="evenodd" clip-rule="evenodd" d="M9.49989 4.96875C7.87249 4.96875 6.55322 6.28802 6.55322 7.91542C6.55322 9.54284 7.87249 10.8621 9.49989 10.8621C11.1273 10.8621 12.4466 9.54284 12.4466 7.91542C12.4466 6.28802 11.1273 4.96875 9.49989 4.96875ZM7.73189 7.91542C7.73189 6.93901 8.52348 6.14742 9.49989 6.14742C10.4763 6.14742 11.2679 6.93901 11.2679 7.91542C11.2679 8.89182 10.4763 9.68342 9.49989 9.68342C8.52348 9.68342 7.73189 8.89182 7.73189 7.91542Z" fill="#707070" fill-opacity="0.7"/>
<path d="M9.49989 4.81875C7.78965 4.81875 6.40322 6.20517 6.40322 7.91542C6.40322 9.62568 7.78965 11.0121 9.49989 11.0121C11.2102 11.0121 12.5966 9.62568 12.5966 7.91542C12.5966 6.20517 11.2102 4.81875 9.49989 4.81875ZM7.88189 7.91542C7.88189 7.02185 8.60632 6.29742 9.49989 6.29742C10.3935 6.29742 11.1179 7.02185 11.1179 7.91542C11.1179 8.80898 10.3935 9.53342 9.49989 9.53342C8.60632 9.53342 7.88189 8.80898 7.88189 7.91542Z" stroke="#707070" stroke-opacity="0.7" stroke-width="0.3"/>
</g>
<g id="Vector_2">
<path fill-rule="evenodd" clip-rule="evenodd" d="M9.5 1C5.93069 1 3.52651 3.13658 2.13115 4.948L2.10598 4.98066C1.79041 5.39019 1.49977 5.76737 1.30259 6.21336C1.09144 6.69098 1 7.21149 1 7.91333C1 8.61518 1.09144 9.13569 1.30259 9.6133C1.49977 10.0593 1.79041 10.4365 2.10599 10.846L2.13115 10.8786C3.52651 12.6901 5.93069 14.8267 9.5 14.8267C13.0693 14.8267 15.4735 12.6901 16.8688 10.8786L16.894 10.846C17.2096 10.4365 17.5002 10.0593 17.6974 9.6133C17.9086 9.13569 18 8.61518 18 7.91333C18 7.21149 17.9086 6.69098 17.6974 6.21336C17.5002 5.76736 17.2096 5.39018 16.894 4.98064L16.8688 4.948C15.4735 3.13658 13.0693 1 9.5 1ZM3.07101 5.67089C4.35939 3.99835 6.4561 2.18514 9.5 2.18514C12.5439 2.18514 14.6406 3.99835 15.929 5.67089C16.2758 6.12107 16.4789 6.39011 16.6125 6.69224C16.7374 6.9747 16.814 7.31989 16.814 7.91333C16.814 8.50677 16.7374 8.85197 16.6125 9.13443C16.4789 9.43656 16.2758 9.70559 15.929 10.1558C14.6406 11.8283 12.5439 13.6415 9.5 13.6415C6.4561 13.6415 4.35939 11.8283 3.07101 10.1558C2.72423 9.70559 2.5211 9.43656 2.38748 9.13443C2.26262 8.85197 2.18605 8.50677 2.18605 7.91333C2.18605 7.31989 2.26262 6.9747 2.38748 6.69224C2.5211 6.39011 2.72422 6.12107 3.07101 5.67089Z" fill="#707070" fill-opacity="0.7"/>
<path d="M16.4753 6.75292L16.4753 6.75288C16.3505 6.47055 16.1599 6.21642 15.8102 5.76243L15.929 5.67089L15.8102 5.76242C14.5354 4.10757 12.4775 2.33514 9.5 2.33514C6.52243 2.33514 4.4646 4.10756 3.18984 5.76242L3.07453 5.6736L3.18984 5.76242C2.84013 6.2164 2.64954 6.47055 2.52468 6.75289L16.4753 6.75292ZM16.4753 6.75292C16.5893 7.01065 16.664 7.33363 16.664 7.91333C16.664 8.49304 16.5893 8.81602 16.4753 9.07375L16.4753 9.07378M16.4753 6.75292L16.4753 9.07378M16.4753 9.07378C16.3505 9.35611 16.1599 9.61024 15.8102 10.0642L15.929 10.1558M16.4753 9.07378L15.929 10.1558M15.929 10.1558L15.8102 10.0642C14.5354 11.7191 12.4775 13.4915 9.5 13.4915M15.929 10.1558L9.5 13.4915M9.5 13.4915C6.52243 13.4915 4.4646 11.7191 3.18984 10.0642M9.5 13.4915L3.18984 10.0642M3.18984 10.0642C2.84013 9.61025 2.64954 9.35612 2.52468 9.07378M3.18984 10.0642L2.52468 9.07378M2.52468 9.07378C2.41073 8.81602 2.33605 8.49303 2.33605 7.91333C2.33605 7.33365 2.41073 7.01066 2.52467 6.75291L2.52468 9.07378ZM1.98717 10.9376L1.9872 10.9376L2.01232 10.9702C3.42117 12.7991 5.86423 14.9767 9.5 14.9767C13.1357 14.9767 15.5788 12.7992 16.9876 10.9702C16.9877 10.9702 16.9877 10.9702 16.9877 10.9702L17.0128 10.9376L17.0128 10.9376L17.0174 10.9316C17.3294 10.5268 17.6298 10.137 17.8346 9.67396C18.0567 9.17163 18.15 8.6289 18.15 7.91333C18.15 7.19777 18.0567 6.65504 17.8346 6.1527C17.6299 5.68972 17.3296 5.30007 17.0175 4.89525L17.0128 4.88912L17.0128 4.88907L16.9877 4.85647L16.9877 4.85646C15.5788 3.02752 13.1357 0.85 9.5 0.85C5.86424 0.85 3.42118 3.02751 2.01233 4.85644C2.01233 4.85645 2.01232 4.85645 2.01232 4.85646L1.98716 4.8891L1.98716 4.8891L1.98158 4.89634C1.66996 5.30074 1.36991 5.69013 1.1654 6.15271C0.943319 6.65504 0.85 7.19776 0.85 7.91333C0.85 8.62891 0.943319 9.17163 1.1654 9.67395C1.36995 10.1366 1.67008 10.5261 1.98178 10.9306L1.98717 10.9376Z" stroke="#707070" stroke-opacity="0.7" stroke-width="0.3"/>
</g>
</g>
</svg>
