<svg width="23" height="19" viewBox="0 0 23 19" fill="none" xmlns="http://www.w3.org/2000/svg">
<path d="M11.4506 5.775C9.39446 5.775 7.72764 7.44182 7.72764 9.49795C7.72764 11.5541 9.39446 13.2209 11.4506 13.2209C13.5067 13.2209 15.1735 11.5541 15.1735 9.49795C15.1735 7.44182 13.5067 5.775 11.4506 5.775ZM9.37682 9.49795C9.37682 8.35268 10.3053 7.42418 11.4506 7.42418C12.5959 7.42418 13.5244 8.35268 13.5244 9.49795C13.5244 10.6432 12.5959 11.5717 11.4506 11.5717C10.3053 11.5717 9.37682 10.6432 9.37682 9.49795Z" fill="url(#paint0_linear_901_1051)" fill-opacity="0.7" stroke="url(#paint1_linear_901_1051)" stroke-width="0.2"/>
<path d="M2.28061 13.1668L2.28063 13.1668L2.31153 13.2069C4.03614 15.4458 7.01801 18.1 11.4508 18.1C15.8836 18.1 18.8655 15.4458 20.5901 13.2069L20.621 13.1668L20.621 13.1668L20.6236 13.1634C21.0094 12.6629 21.3734 12.1906 21.621 11.6306C21.888 11.0269 22.0016 10.3721 22.0016 9.5C22.0016 8.62793 21.888 7.97314 21.621 7.36943C21.3735 6.80954 21.0095 6.33734 20.6238 5.83684L20.621 5.83321L20.621 5.83319L20.5901 5.79307L20.5109 5.85409L20.5901 5.79307C18.8655 3.55423 15.8836 0.9 11.4508 0.9C7.01801 0.9 4.03614 3.55423 2.31154 5.79307L2.2806 5.83322L2.27677 5.83819C1.8915 6.33817 1.52789 6.81004 1.28058 7.36944C1.01368 7.97314 0.9 8.62792 0.9 9.5C0.9 10.3721 1.01368 11.0269 1.28058 11.6306C1.52794 12.1901 1.89164 12.662 2.27701 13.1621L2.28061 13.1668ZM19.2761 6.80392L19.3553 6.74289L19.2761 6.80392C19.7045 7.35997 19.9458 7.68081 20.1042 8.03909L20.1042 8.03911C20.2505 8.36991 20.3434 8.77952 20.3434 9.5C20.3434 10.2205 20.2505 10.6301 20.1042 10.9609L20.1042 10.9609C19.9458 11.3192 19.7045 11.64 19.2761 12.1961L19.3553 12.2571L19.2761 12.1961C17.7011 14.2407 15.1491 16.4429 11.4508 16.4429C7.75254 16.4429 5.20054 14.2407 3.62555 12.1961C3.19722 11.64 2.95583 11.3192 2.79739 10.9609C2.65114 10.6301 2.55825 10.2205 2.55825 9.5C2.55825 8.77953 2.65114 8.36992 2.79738 8.0391C2.95582 7.68082 3.19721 7.35996 3.62555 6.80392C5.20054 4.7593 7.75254 2.55714 11.4508 2.55714C15.1491 2.55714 17.7011 4.75931 19.2761 6.80392Z" fill="url(#paint2_linear_901_1051)" fill-opacity="0.7" stroke="url(#paint3_linear_901_1051)" stroke-width="0.2"/>
<defs>
<linearGradient id="paint0_linear_901_1051" x1="11.4506" y1="5.875" x2="11.4506" y2="13.1209" gradientUnits="userSpaceOnUse">
<stop stop-color="#4C0497"/>
<stop offset="1" stop-color="#4C0497" stop-opacity="0.5"/>
</linearGradient>
<linearGradient id="paint1_linear_901_1051" x1="11.4506" y1="5.875" x2="11.4506" y2="13.1209" gradientUnits="userSpaceOnUse">
<stop stop-color="#4C0497"/>
<stop offset="1" stop-color="#4C0497" stop-opacity="0.5"/>
</linearGradient>
<linearGradient id="paint2_linear_901_1051" x1="11.4508" y1="1" x2="11.4508" y2="18" gradientUnits="userSpaceOnUse">
<stop stop-color="#4C0497"/>
<stop offset="1" stop-color="#4C0497" stop-opacity="0.5"/>
</linearGradient>
<linearGradient id="paint3_linear_901_1051" x1="11.4508" y1="1" x2="11.4508" y2="18" gradientUnits="userSpaceOnUse">
<stop stop-color="#4C0497"/>
<stop offset="1" stop-color="#4C0497" stop-opacity="0.5"/>
</linearGradient>
</defs>
</svg>
