<svg width="29" height="23" viewBox="0 0 29 23" fill="none" xmlns="http://www.w3.org/2000/svg">
<path fill-rule="evenodd" clip-rule="evenodd" d="M14.558 6.37109C11.9363 6.37109 9.81104 8.47185 9.81104 11.0633C9.81104 13.6547 11.9363 15.7554 14.558 15.7554C17.1798 15.7554 19.305 13.6547 19.305 11.0633C19.305 8.47185 17.1798 6.37109 14.558 6.37109ZM11.7098 11.0633C11.7098 9.50847 12.9851 8.24796 14.558 8.24796C16.131 8.24796 17.4062 9.50847 17.4062 11.0633C17.4062 12.6181 16.131 13.8786 14.558 13.8786C12.9851 13.8786 11.7098 12.6181 11.7098 11.0633Z" fill="#707070" fill-opacity="0.7"/>
<path fill-rule="evenodd" clip-rule="evenodd" d="M14.5585 0.0546875C8.80843 0.0546875 4.93536 3.45689 2.68748 6.34134L2.64694 6.39335C2.13857 7.04547 1.67035 7.64608 1.3527 8.35627C1.01254 9.1168 0.865234 9.94565 0.865234 11.0632C0.865234 12.1808 1.01254 13.0097 1.3527 13.7702C1.67035 14.4804 2.13857 15.081 2.64695 15.7331L2.68748 15.7851C4.93536 18.6696 8.80843 22.0718 14.5585 22.0718C20.3085 22.0718 24.1816 18.6696 26.4295 15.7851L26.47 15.7331C26.9785 15.081 27.4466 14.4804 27.7643 13.7702C28.1045 13.0097 28.2517 12.1808 28.2517 11.0632C28.2517 9.94565 28.1045 9.1168 27.7643 8.35627C27.4466 7.64607 26.9785 7.04546 26.47 6.39332L26.4295 6.34134C24.1816 3.45689 20.3085 0.0546875 14.5585 0.0546875ZM4.20157 7.49244C6.27711 4.82915 9.65485 1.94187 14.5585 1.94187C19.4621 1.94187 22.8399 4.82915 24.9154 7.49244C25.4741 8.2093 25.8013 8.63771 26.0165 9.11881C26.2177 9.56859 26.341 10.1183 26.341 11.0632C26.341 12.0082 26.2177 12.5579 26.0165 13.0077C25.8013 13.4888 25.4741 13.9172 24.9154 14.634C22.8399 17.2973 19.4621 20.1846 14.5585 20.1846C9.65485 20.1846 6.27711 17.2973 4.20157 14.634C3.64291 13.9172 3.31568 13.4888 3.10043 13.0077C2.89927 12.5579 2.77592 12.0082 2.77592 11.0632C2.77592 10.1183 2.89927 9.56859 3.10043 9.11881C3.31568 8.63771 3.6429 8.2093 4.20157 7.49244Z" fill="#707070" fill-opacity="0.7"/>
</svg>
