<svg width="21" height="21" viewBox="0 0 21 21" fill="none" xmlns="http://www.w3.org/2000/svg">
<path id="Vector" d="M21 17.1465C21 17.5245 20.9159 17.913 20.7371 18.291C20.5583 18.669 20.327 19.026 20.022 19.362C19.5068 19.929 18.9389 20.3385 18.2974 20.601C17.6665 20.8635 16.983 21 16.2469 21C15.1743 21 14.028 20.748 12.8187 20.2335C11.6094 19.719 10.4001 19.026 9.2013 18.1545C7.97948 17.2621 6.82652 16.2793 5.75213 15.2145C4.68874 14.1456 3.70797 12.9978 2.81823 11.781C1.95593 10.584 1.26189 9.387 0.757136 8.2005C0.252379 7.0035 0 5.859 0 4.767C0 4.053 0.126189 3.3705 0.378568 2.7405C0.630946 2.1 1.03055 1.512 1.58788 0.987C2.26089 0.3255 2.997 0 3.77516 0C4.0696 0 4.36405 0.0630001 4.62694 0.189C4.90035 0.315 5.14221 0.504 5.3315 0.777L7.77116 4.2105C7.96044 4.473 8.09715 4.7145 8.19179 4.9455C8.28643 5.166 8.33901 5.3865 8.33901 5.586C8.33901 5.838 8.2654 6.09 8.11818 6.3315C7.98147 6.573 7.78167 6.825 7.52929 7.077L6.7301 7.9065C6.61442 8.022 6.56184 8.1585 6.56184 8.3265C6.56184 8.4105 6.57236 8.484 6.59339 8.568C6.62494 8.652 6.65649 8.715 6.67752 8.778C6.8668 9.1245 7.19279 9.576 7.65548 10.122C8.12869 10.668 8.63345 11.2245 9.18027 11.781C9.74812 12.3375 10.2949 12.852 10.8523 13.3245C11.3991 13.7865 11.8513 14.1015 12.2088 14.2905C12.2614 14.3115 12.3245 14.343 12.3981 14.3745C12.4822 14.406 12.5664 14.4165 12.661 14.4165C12.8398 14.4165 12.9765 14.3535 13.0921 14.238L13.8913 13.4505C14.1542 13.188 14.4066 12.9885 14.6485 12.8625C14.8903 12.7155 15.1322 12.642 15.3951 12.642C15.5949 12.642 15.8052 12.684 16.0366 12.7785C16.2679 12.873 16.5098 13.0095 16.7727 13.188L20.2534 15.6555C20.5268 15.8445 20.7161 16.065 20.8317 16.3275C20.9369 16.59 21 16.8525 21 17.1465Z" fill="url(#paint0_linear_244_952)"/>
<defs>
<linearGradient id="paint0_linear_244_952" x1="10.5" y1="0" x2="10.5" y2="21" gradientUnits="userSpaceOnUse">
<stop stop-color="#4C0497"/>
<stop offset="1" stop-color="#4C0497" stop-opacity="0.5"/>
</linearGradient>
</defs>
</svg>
