<svg width="42" height="42" viewBox="0 0 42 42" fill="none" xmlns="http://www.w3.org/2000/svg">
<g id="Group 47653">
<path id="Vector" d="M21.0001 24.6922C23.0345 24.6922 24.6997 23.0352 24.6997 20.9926C24.6997 20.1887 24.4372 19.4422 24.0025 18.8352C23.3298 17.9082 22.2388 17.293 21.0083 17.293C19.7779 17.293 18.6868 17.9 18.0142 18.8352C17.5794 19.4422 17.3169 20.1887 17.3169 20.9926C17.3087 23.0352 18.9658 24.6922 21.0001 24.6922Z" fill="url(#paint0_linear_244_957)"/>
<path id="Vector_2" d="M29.0719 16.482V13.3813V12.9219H28.6125L25.5117 12.9301L25.5281 16.4902L29.0719 16.482Z" fill="url(#paint1_linear_244_957)"/>
<path id="Vector_3" d="M26.7422 21.0012C26.7422 24.1676 24.1664 26.7434 21 26.7434C17.8336 26.7434 15.2578 24.1676 15.2578 21.0012C15.2578 20.2383 15.4137 19.5082 15.6844 18.8438H12.5508V27.4406C12.5508 28.548 13.4531 29.4504 14.5605 29.4504H27.4395C28.5469 29.4504 29.4492 28.548 29.4492 27.4406V18.8438H26.3156C26.5945 19.5082 26.7422 20.2383 26.7422 21.0012Z" fill="url(#paint2_linear_244_957)"/>
<path id="Vector_4" d="M21 0C9.40078 0 0 9.40078 0 21C0 32.5992 9.40078 42 21 42C32.5992 42 42 32.5992 42 21C42 9.40078 32.5992 0 21 0ZM31.5 18.8426V27.4395C31.5 29.6789 29.6789 31.5 27.4395 31.5H14.5605C12.3211 31.5 10.5 29.6789 10.5 27.4395V18.8426V14.5523C10.5 12.3129 12.3211 10.4918 14.5605 10.4918H27.4395C29.6789 10.4918 31.5 12.3129 31.5 14.5523V18.8426Z" fill="url(#paint3_linear_244_957)"/>
</g>
<defs>
<linearGradient id="paint0_linear_244_957" x1="21.0083" y1="17.293" x2="21.0083" y2="24.6922" gradientUnits="userSpaceOnUse">
<stop stop-color="#4C0497"/>
<stop offset="1" stop-color="#4C0497" stop-opacity="0.5"/>
</linearGradient>
<linearGradient id="paint1_linear_244_957" x1="27.2918" y1="12.9219" x2="27.2918" y2="16.4902" gradientUnits="userSpaceOnUse">
<stop stop-color="#4C0497"/>
<stop offset="1" stop-color="#4C0497" stop-opacity="0.5"/>
</linearGradient>
<linearGradient id="paint2_linear_244_957" x1="21" y1="18.8438" x2="21" y2="29.4504" gradientUnits="userSpaceOnUse">
<stop stop-color="#4C0497"/>
<stop offset="1" stop-color="#4C0497" stop-opacity="0.5"/>
</linearGradient>
<linearGradient id="paint3_linear_244_957" x1="21" y1="0" x2="21" y2="42" gradientUnits="userSpaceOnUse">
<stop stop-color="#4C0497"/>
<stop offset="1" stop-color="#4C0497" stop-opacity="0.5"/>
</linearGradient>
</defs>
</svg>
