<svg width="18" height="21" viewBox="0 0 18 21" fill="none" xmlns="http://www.w3.org/2000/svg">
<g id="Group 47763">
<path id="Vector" d="M9 12C10.6568 12 12 10.6569 12 8.99998C12 7.34315 10.6568 6 9 6C7.34317 6 6 7.34315 6 8.99998C6 10.6569 7.34317 12 9 12Z" stroke="url(#paint0_linear_244_4981)" stroke-opacity="0.7" stroke-width="2"/>
<path id="Vector_2" d="M1.22522 7.16704C3.05295 -1.06201 14.9564 -1.05251 16.7748 7.17654C17.8418 12.0038 14.91 16.0898 12.34 18.6174C10.4752 20.4609 7.52484 20.4609 5.65073 18.6174C3.09006 16.0898 0.158277 11.9942 1.22522 7.16704Z" stroke="url(#paint1_linear_244_4981)" stroke-opacity="0.7" stroke-width="2"/>
</g>
<defs>
<linearGradient id="paint0_linear_244_4981" x1="9" y1="6" x2="9" y2="12" gradientUnits="userSpaceOnUse">
<stop stop-color="#4C0497"/>
<stop offset="1" stop-color="#4C0497" stop-opacity="0.5"/>
</linearGradient>
<linearGradient id="paint1_linear_244_4981" x1="9" y1="1" x2="9" y2="20" gradientUnits="userSpaceOnUse">
<stop stop-color="#4C0497"/>
<stop offset="1" stop-color="#4C0497" stop-opacity="0.5"/>
</linearGradient>
</defs>
</svg>
