<svg width="22" height="20" viewBox="0 0 22 20" fill="none" xmlns="http://www.w3.org/2000/svg">
<path d="M6.55556 4.77807L0.999999 10M0.999999 10L6.55556 15.2219M0.999999 10H14.3333M11 4.77807C11 4.46935 11 4.31499 11.0122 4.1813C11.1391 2.79164 12.2279 1.64814 13.6833 1.37618C13.8233 1.35007 13.9866 1.33294 14.3129 1.29889L15.4478 1.18036C17.1528 1.00229 18.0053 0.913307 18.6826 1.11696C19.5856 1.38861 20.3229 2.00887 20.7098 2.82245C21 3.43269 21 4.23885 21 5.85139V14.1486C21 15.7611 21 16.5673 20.7098 17.1775C20.3229 17.9911 19.5856 18.6114 18.6826 18.883C18.0053 19.0867 17.1528 18.9977 15.4478 18.8196L14.3129 18.7011C13.9865 18.667 13.8233 18.65 13.6833 18.6238C12.2279 18.3518 11.1391 17.2083 11.0122 15.8187C11 15.685 11 15.5306 11 15.2219" stroke="url(#paint0_linear_244_28387)" stroke-opacity="0.7" stroke-width="2" stroke-linecap="round" stroke-linejoin="round"/>
<defs>
<linearGradient id="paint0_linear_244_28387" x1="11" y1="19" x2="11" y2="1" gradientUnits="userSpaceOnUse">
<stop stop-color="#4C0497"/>
<stop offset="0.9999" stop-color="#4C0497" stop-opacity="0.5"/>
<stop offset="1" stop-color="#4C0497" stop-opacity="0.5"/>
</linearGradient>
</defs>
</svg>
