<svg width="14" height="17" viewBox="0 0 14 17" fill="none" xmlns="http://www.w3.org/2000/svg">
<g id="Group 48091">
<path id="Vector" fill-rule="evenodd" clip-rule="evenodd" d="M2.93652 3.74951C2.93652 1.67872 4.64325 0 6.74855 0C8.85384 0 10.5605 1.67872 10.5605 3.74951V7.49905C10.5605 9.56981 8.85384 11.2485 6.74855 11.2485C4.64325 11.2485 2.93652 9.56981 2.93652 7.49905V3.74951ZM6.74855 1.4998C5.48534 1.4998 4.46133 2.50703 4.46133 3.74951V7.49905C4.46133 8.74148 5.48534 9.74873 6.74855 9.74873C8.01169 9.74873 9.0357 8.74148 9.0357 7.49905V3.74951C9.0357 2.50703 8.01169 1.4998 6.74855 1.4998Z" fill="#707070" fill-opacity="0.7"/>
<path id="Vector_2" d="M5.50621 15.5038C5.79228 15.5038 6.02421 15.2719 6.02421 14.9858V14.0612C2.866 13.7174 0.357572 11.2457 0.0043388 8.1314C-0.0428181 7.71561 0.300916 7.375 0.719339 7.375C1.13776 7.375 1.47114 7.71619 1.53181 8.13024C1.90284 10.662 4.11132 12.6072 6.78035 12.6072C9.44932 12.6072 11.6578 10.662 12.0289 8.13024C12.0895 7.71619 12.4229 7.375 12.8413 7.375C13.2597 7.375 13.6035 7.71561 13.5564 8.1314C13.2032 11.2448 10.6963 13.7159 7.53941 14.0608V14.9858C7.53941 15.2719 7.77134 15.5038 8.0574 15.5038H9.50176C9.78783 15.5038 10.0198 15.7357 10.0198 16.0219V16.4807C10.0198 16.7668 9.78783 16.9987 9.50176 16.9987H4.09682C3.81075 16.9987 3.57883 16.7668 3.57883 16.4807V16.0219C3.57883 15.7357 3.81074 15.5038 4.09682 15.5038H5.50621Z" fill="#707070" fill-opacity="0.7"/>
</g>
</svg>
