<svg width="19" height="22" viewBox="0 0 19 22" fill="none" xmlns="http://www.w3.org/2000/svg">
<g id="Group 48594">
<path id="vector (Stroke)" fill-rule="evenodd" clip-rule="evenodd" d="M6.77839 17.9844C7.18751 17.9844 7.51918 18.3161 7.51918 18.7252C7.51918 18.8962 7.5625 19.073 7.65632 19.2475C7.75083 19.4232 7.897 19.5967 8.09816 19.7517C8.29946 19.9067 8.54787 20.0367 8.83243 20.1274C9.11689 20.2182 9.42605 20.2661 9.74113 20.2661C10.0562 20.2661 10.3654 20.2182 10.6497 20.1274C10.9344 20.0367 11.1828 19.9067 11.3841 19.7517C11.5852 19.5967 11.7314 19.4232 11.8259 19.2475C11.9197 19.073 11.9631 18.8962 11.9631 18.7252C11.9631 18.3161 12.2948 17.9844 12.7039 17.9844C13.113 17.9844 13.4447 18.3161 13.4447 18.7252C13.4447 19.1533 13.3348 19.57 13.1308 19.9492C12.9275 20.3271 12.6372 20.6567 12.2881 20.9255C11.9392 21.1943 11.5343 21.4004 11.1 21.539C10.6655 21.6776 10.2042 21.7477 9.74113 21.7477C9.27809 21.7477 8.81673 21.6776 8.38223 21.539C7.94789 21.4004 7.54307 21.1943 7.19414 20.9255C6.84507 20.6567 6.55478 20.3271 6.35149 19.9492C6.14753 19.57 6.0376 19.1533 6.0376 18.7252C6.0376 18.3161 6.36925 17.9844 6.77839 17.9844Z" fill="white"/>
<g id="Group 48592">
<path id="vector (Stroke)_2" d="M12.245 1.24906L12.2163 1.34472L12.245 1.24906C10.2371 0.648012 8.05933 0.823991 6.157 1.77068C3.90492 2.8914 2.48117 5.1902 2.48117 7.70573V9.01079C2.48117 10.1542 2.19623 11.2797 1.65213 12.2854L1.74008 12.333L1.65213 12.2854L1.4285 12.6987C0.0198471 15.3024 1.55991 18.5231 4.47094 19.0611C7.95495 19.7051 11.5275 19.7051 15.0115 19.0611L15.1698 19.0318C18.0404 18.5013 19.6399 15.4056 18.4117 12.7572C18.4117 12.7572 18.4117 12.7572 18.4117 12.7572L18.1504 12.1934L18.1503 12.1934C17.8369 11.5176 17.6332 10.798 17.545 10.0617C17.4899 9.60058 17.0714 9.27155 16.6103 9.3267C16.1492 9.38186 15.8202 9.80035 15.8754 10.2614C15.9845 11.1731 16.2367 12.064 16.6248 12.9009L16.8862 13.4646L16.9769 13.4225L16.8862 13.4646C17.6522 15.1165 16.6547 17.0473 14.8641 17.3783L14.7058 17.4075C11.4239 18.0141 8.0585 18.0141 4.77658 17.4075C2.98823 17.077 2.04211 15.0985 2.90751 13.4989L2.81955 13.4513L2.90751 13.4989L3.13113 13.0856C3.80819 11.8341 4.16275 10.4337 4.16275 9.01079V7.70573C4.16275 5.82829 5.22535 4.11259 6.90617 3.27615C8.42366 2.52099 10.1609 2.38053 11.7627 2.86C12.2075 2.99317 12.6761 2.74051 12.8093 2.29565C12.9425 1.8508 12.6898 1.38223 12.245 1.24906Z" fill="white" stroke="white" stroke-width="0.2"/>
<path id="vector (Stroke)_3" fill-rule="evenodd" clip-rule="evenodd" d="M15.7897 3.6183C14.835 3.6183 14.0612 4.39218 14.0612 5.34681C14.0612 6.30144 14.835 7.07532 15.7897 7.07532C16.7443 7.07532 17.5182 6.30144 17.5182 5.34681C17.5182 4.39218 16.7443 3.6183 15.7897 3.6183ZM12.5796 5.34681C12.5796 3.57392 14.0168 2.13672 15.7897 2.13672C17.5626 2.13672 18.9998 3.57392 18.9998 5.34681C18.9998 7.11969 17.5626 8.5569 15.7897 8.5569C14.0168 8.5569 12.5796 7.11969 12.5796 5.34681Z" fill="white"/>
</g>
</g>
</svg>
