<svg width="23" height="23" viewBox="0 0 23 23" fill="none" xmlns="http://www.w3.org/2000/svg">
<path id="Vector" d="M10.4514 19.8967C12.9581 19.8967 15.3621 18.9013 17.1346 17.1294C18.9071 15.3575 19.9029 12.9542 19.9029 10.4484C19.9029 7.94251 18.9071 5.53928 17.1346 3.76736C15.3621 1.99545 12.9581 1 10.4514 1C7.94475 1 5.54074 1.99545 3.76826 3.76736C1.99577 5.53928 1 7.94251 1 10.4484C1 12.9542 1.99577 15.3575 3.76826 17.1294C5.54074 18.9013 7.94475 19.8967 10.4514 19.8967ZM18.7792 20.6211C19.3358 22.3008 20.6065 22.4688 21.5831 20.9991C22.4757 19.6553 21.8877 18.553 20.2704 18.553C19.0732 18.5425 18.4011 19.4768 18.7792 20.6211Z" stroke="#ffffff" stroke-opacity="0.7" stroke-linecap="round" stroke-linejoin="round"/>
</svg>
