<svg width="0" height="0" class="hidden">
  <symbol fill="none" xmlns="http://www.w3.org/2000/svg" viewBox="0 0 20 20" id="card-call">
    <path d="M10.0931 1.55749L10.0931 1.55749C10.1675 1.0978 10.6018 0.786663 11.0606 0.860941L11.0648 0.861616L11.0647 0.861675C11.0675 0.862208 11.0713 0.862918 11.0758 0.863771C11.1061 0.869507 11.1704 0.881696 11.2072 0.889892L11.2072 0.8899C11.289 0.908108 11.402 0.935912 11.5422 0.976759L10.0931 1.55749ZM10.0931 1.55749C10.0188 2.01649 10.3385 2.44629 10.791 2.52401C10.8441 2.5359 10.9712 2.56525 11.071 2.59433L11.071 2.59434C11.2791 2.65493 11.591 2.76096 11.9768 2.93782C12.7472 3.29102 13.816 3.92838 14.945 5.05738L14.945 5.05738C16.074 6.18638 16.7114 7.25523 17.0646 8.02564L17.0646 8.02565C17.2414 8.41139 17.3474 8.72326 17.4081 8.93132L10.0931 1.55749ZM18.5961 7.32349L18.5961 7.3235C18.81 7.79009 18.944 8.17978 19.0256 8.46023M18.5961 7.32349L17.6273 9.19157L17.4794 9.21621C17.4795 9.21687 17.4796 9.21754 17.4797 9.21819C17.5568 9.67428 17.9876 9.98328 18.4449 9.90925C18.9086 9.83418 19.2128 9.38177 19.1392 8.92704L19.1392 8.92704L19.1386 8.9236L19.1332 8.8948L19.1331 8.89426C19.1283 8.86912 19.1215 8.83593 19.1125 8.79523C19.0943 8.7135 19.0665 8.6005 19.0256 8.46023M18.5961 7.32349C18.1677 6.38913 17.4203 5.14998 16.1364 3.86605C14.8524 2.58212 13.6133 1.83468 12.6789 1.40631C12.2123 1.19239 11.8226 1.05844 11.5422 0.976762L18.5961 7.32349ZM19.0256 8.46023L18.8816 8.50216L19.0256 8.46014C19.0256 8.46017 19.0256 8.4602 19.0256 8.46023Z" fill="currentColor" stroke="currentColor" stroke-width="0.3"></path>
    <path d="M15.7944 8.49749C15.781 8.46222 15.7646 8.42133 15.7448 8.37508C15.7448 8.37507 15.7448 8.37506 15.7448 8.37505L15.7944 8.49749ZM15.7944 8.49749L15.8015 8.49545L15.8406 8.63222M15.7944 8.49749L15.8406 8.63222M15.8406 8.63222L15.8417 8.6359L15.8417 8.63591L15.8429 8.6397L15.8427 8.63974M15.8406 8.63222L15.8427 8.63974M15.8427 8.63974C15.9705 9.08707 15.7115 9.55327 15.2642 9.68108L15.2641 9.68109C14.8216 9.8075 14.3605 9.55542 14.227 9.11674L14.2248 9.11045C14.2205 9.09861 14.2115 9.07447 14.1962 9.03872C14.1646 8.96496 14.1056 8.84036 14.0059 8.67184C13.8067 8.3353 13.4427 7.81967 12.8051 7.18197C12.8051 7.18197 12.8051 7.18196 12.8051 7.18196M15.8427 8.63974L11.3916 5.85209C11.7393 6.05792 12.2649 6.42971 12.9112 7.0759L12.8051 7.18196M12.8051 7.18196C12.1674 6.54427 11.6517 6.18034 11.3152 5.98117M12.8051 7.18196L11.3152 5.98117M11.3152 5.98117C11.1466 5.88143 11.0221 5.82242 10.9483 5.79082L10.9483 5.79081C10.9117 5.77514 10.8876 5.76618 10.8768 5.76233M11.3152 5.98117L10.8773 5.7625L10.8768 5.76233M10.8768 5.76233L10.8701 5.76003M10.8768 5.76233L10.8701 5.76003M10.8701 5.76003C10.4316 5.62641 10.1794 5.16542 10.306 4.72287L10.8701 5.76003ZM11.3443 4.14347C10.898 4.01764 10.4335 4.27652 10.306 4.72284L11.3443 4.14347ZM11.6119 4.24223L11.5529 4.3801L15.4557 7.81375C15.1817 7.35059 14.7296 6.72381 13.9964 5.99063C13.2632 5.25745 12.6365 4.80538 12.1733 4.53127C11.942 4.39436 11.7524 4.30241 11.6119 4.24223Z" fill="currentColor" stroke="currentColor" stroke-width="0.3"></path>
    <path d="M1.00652 7.14347L0.856629 7.13779C0.782498 9.09343 1.28948 12.3262 4.48274 15.5195C7.67596 18.7128 10.9089 19.2198 12.8645 19.1456C14.215 19.0945 15.3521 18.3278 16.194 17.4858L16.088 17.3798L16.194 17.4858C17.8011 15.8786 17.6979 13.1383 15.659 12.0004L14.5854 11.4012C13.2605 10.6617 11.6002 10.9778 10.5133 12.0437C10.4905 12.0582 10.4153 12.0997 10.2913 12.1057L10.2913 12.1057C10.1096 12.1146 9.60127 12.0574 8.77307 11.2291L8.77306 11.2291C7.94459 10.4007 7.88763 9.89222 7.89648 9.71076C7.90252 9.5869 7.94402 9.51178 7.95857 9.48896C9.02453 8.40204 9.34046 6.74177 8.60106 5.41684L8.0019 4.34323L7.87092 4.41633L8.0019 4.34322C6.864 2.30433 4.12357 2.2011 2.51642 3.80825C1.6745 4.65017 0.907834 5.78723 0.856629 7.13778L1.00652 7.14347ZM6.53068 5.16428L6.66167 5.09118L6.53068 5.16429L7.12988 6.2379C7.46643 6.84097 7.35808 7.70692 6.74178 8.32326L6.74177 8.32326C6.66372 8.40133 6.25202 8.84589 6.2137 9.62844L6.36352 9.63578L6.2137 9.62844C6.17436 10.432 6.53775 11.3765 7.58178 12.4205C8.62539 13.4641 9.56957 13.8277 10.3732 13.7886C11.1556 13.7505 11.6006 13.3389 11.679 13.2604C12.2953 12.6441 13.1613 12.5359 13.7644 12.8724L14.838 13.4716C15.7291 13.9689 15.9638 15.3333 15.0026 16.2945L15.0026 16.2945C14.2993 16.9979 13.5431 17.4339 12.8007 17.4621L12.8063 17.6119L12.8007 17.4621C11.2331 17.5215 8.48275 17.1368 5.67407 14.3281L5.56801 14.4342L5.67407 14.3281C2.86542 11.5195 2.4808 8.76908 2.54023 7.20161C2.56837 6.45916 3.00436 5.70297 3.70775 4.99958C4.66897 4.03836 6.03331 4.27307 6.53068 5.16428Z" fill="currentColor" stroke="currentColor" stroke-width="0.3"></path>
  </symbol>
  <symbol fill="none" xmlns="http://www.w3.org/2000/svg" viewBox="0 0 20 20" id="card-mail">
    <path d="M6 6H14M6 10H11M1 8C1 2.64706 3.11765 1 10 1C16.8824 1 19 2.64706 19 8C19 13.3529 16.8824 15 10 15C9.6592 15 9.3301 14.996 9.0124 14.9876L5 19V14.4939C2.0328 13.6692 1 11.7383 1 8Z" stroke="currentColor" stroke-width="2" stroke-linecap="round" stroke-linejoin="round"></path>
  </symbol>
  <symbol xmlns="http://www.w3.org/2000/svg" fill="none" stroke-width="1.5" stroke="currentColor" viewBox="0 0 24 24" id="card-clock">
    <path stroke-linecap="round" stroke-linejoin="round" d="M12 6v6h4.5m4.5 0a9 9 0 1 1-18 0 9 9 0 0 1 18 0Z"></path>
  </symbol>
  <symbol xmlns="http://www.w3.org/2000/svg" fill="none" stroke-width="1.5" stroke="currentColor" viewBox="0 0 24 24" id="card-location">
    <path stroke-linecap="round" stroke-linejoin="round" d="M15 10.5a3 3 0 1 1-6 0 3 3 0 0 1 6 0Z"></path>
    <path stroke-linecap="round" stroke-linejoin="round" d="M19.5 10.5c0 7.142-7.5 11.25-7.5 11.25S4.5 17.642 4.5 10.5a7.5 7.5 0 1 1 15 0Z"></path>
  </symbol>
  <symbol fill="none" xmlns="http://www.w3.org/2000/svg" viewBox="0 0 17 17" id="auction">
    <path d="M0.972824 7.64011L0.972403 7.63968C0.814322 7.4796 0.79607 7.18094 0.99679 6.97779L0.972824 7.64011ZM0.972824 7.64011L4.51125 11.2282L4.5126 11.2296M0.972824 7.64011L4.5126 11.2296M4.5126 11.2296C4.66115 11.3809 4.93717 11.4035 5.13542 11.2029C5.30409 11.0317 5.32036 10.7806 5.21495 10.6097L4.86454 10.0417M4.5126 11.2296L4.86454 10.0417M4.86454 10.0417L5.3333 9.56653M4.86454 10.0417L5.3333 9.56653M5.3333 9.56653L6.89234 7.98625L7.49779 7.37255M5.3333 9.56653L7.49779 7.37255M7.49779 7.37255L7.49835 7.37312M7.49779 7.37255L7.49835 7.37312M7.49835 7.37312L7.86362 7.00275L9.42168 5.42297L9.90504 4.93286L10.4849 5.3038C10.636 5.40045 10.8676 5.39255 11.0368 5.22213C11.2386 5.01699 11.2196 4.71746 11.0615 4.55726L11.0615 4.55722L7.52289 0.969934C7.52281 0.969848 7.52273 0.969763 7.52264 0.969677C7.52261 0.969649 7.52258 0.969621 7.52256 0.969592C7.37068 0.816185 7.09471 0.795851 6.89757 0.994633C6.72851 1.16636 6.71349 1.41886 6.81754 1.58651L7.1705 2.15519L6.70046 2.63168L2.61199 6.77634L2.13035 7.26459L1.55133 6.89705C1.3957 6.79826 1.1644 6.80835 0.996878 6.9777L7.49835 7.37312ZM9.64481 9.64321L9.60717 9.96588C9.58724 10.1368 9.64065 10.2983 9.75417 10.4131L9.75455 10.4135L15.2634 15.9954L15.2635 15.9955C15.3668 16.1002 15.4976 16.15 15.6283 16.15C15.759 16.15 15.8899 16.1002 15.9931 15.9955C16.2024 15.7834 16.202 15.4348 15.9934 15.2236L15.9931 15.2233L10.4862 9.64136C10.3336 9.48669 10.1106 9.4485 9.92393 9.52654L9.64481 9.64321Z" stroke="currentColor" stroke-width="1.7"></path>
  </symbol>
  <symbol fill="none" xmlns="http://www.w3.org/2000/svg" viewBox="0 0 19 16" id="eye-solid">
    <g >
      <g >
        <path fill-rule="evenodd" clip-rule="evenodd" d="M9.49989 4.96875C7.87249 4.96875 6.55322 6.28802 6.55322 7.91542C6.55322 9.54284 7.87249 10.8621 9.49989 10.8621C11.1273 10.8621 12.4466 9.54284 12.4466 7.91542C12.4466 6.28802 11.1273 4.96875 9.49989 4.96875ZM7.73189 7.91542C7.73189 6.93901 8.52348 6.14742 9.49989 6.14742C10.4763 6.14742 11.2679 6.93901 11.2679 7.91542C11.2679 8.89182 10.4763 9.68342 9.49989 9.68342C8.52348 9.68342 7.73189 8.89182 7.73189 7.91542Z" fill="currentColor" fill-opacity="0.7"></path>
        <path d="M9.49989 4.81875C7.78965 4.81875 6.40322 6.20517 6.40322 7.91542C6.40322 9.62568 7.78965 11.0121 9.49989 11.0121C11.2102 11.0121 12.5966 9.62568 12.5966 7.91542C12.5966 6.20517 11.2102 4.81875 9.49989 4.81875ZM7.88189 7.91542C7.88189 7.02185 8.60632 6.29742 9.49989 6.29742C10.3935 6.29742 11.1179 7.02185 11.1179 7.91542C11.1179 8.80898 10.3935 9.53342 9.49989 9.53342C8.60632 9.53342 7.88189 8.80898 7.88189 7.91542Z" stroke="currentColor" stroke-opacity="0.7" stroke-width="0.3"></path>
      </g>
      <g >
        <path fill-rule="evenodd" clip-rule="evenodd" d="M9.5 1C5.93069 1 3.52651 3.13658 2.13115 4.948L2.10598 4.98066C1.79041 5.39019 1.49977 5.76737 1.30259 6.21336C1.09144 6.69098 1 7.21149 1 7.91333C1 8.61518 1.09144 9.13569 1.30259 9.6133C1.49977 10.0593 1.79041 10.4365 2.10599 10.846L2.13115 10.8786C3.52651 12.6901 5.93069 14.8267 9.5 14.8267C13.0693 14.8267 15.4735 12.6901 16.8688 10.8786L16.894 10.846C17.2096 10.4365 17.5002 10.0593 17.6974 9.6133C17.9086 9.13569 18 8.61518 18 7.91333C18 7.21149 17.9086 6.69098 17.6974 6.21336C17.5002 5.76736 17.2096 5.39018 16.894 4.98064L16.8688 4.948C15.4735 3.13658 13.0693 1 9.5 1ZM3.07101 5.67089C4.35939 3.99835 6.4561 2.18514 9.5 2.18514C12.5439 2.18514 14.6406 3.99835 15.929 5.67089C16.2758 6.12107 16.4789 6.39011 16.6125 6.69224C16.7374 6.9747 16.814 7.31989 16.814 7.91333C16.814 8.50677 16.7374 8.85197 16.6125 9.13443C16.4789 9.43656 16.2758 9.70559 15.929 10.1558C14.6406 11.8283 12.5439 13.6415 9.5 13.6415C6.4561 13.6415 4.35939 11.8283 3.07101 10.1558C2.72423 9.70559 2.5211 9.43656 2.38748 9.13443C2.26262 8.85197 2.18605 8.50677 2.18605 7.91333C2.18605 7.31989 2.26262 6.9747 2.38748 6.69224C2.5211 6.39011 2.72422 6.12107 3.07101 5.67089Z" fill="currentColor" fill-opacity="0.7"></path>
        <path d="M16.4753 6.75292L16.4753 6.75288C16.3505 6.47055 16.1599 6.21642 15.8102 5.76243L15.929 5.67089L15.8102 5.76242C14.5354 4.10757 12.4775 2.33514 9.5 2.33514C6.52243 2.33514 4.4646 4.10756 3.18984 5.76242L3.07453 5.6736L3.18984 5.76242C2.84013 6.2164 2.64954 6.47055 2.52468 6.75289L16.4753 6.75292ZM16.4753 6.75292C16.5893 7.01065 16.664 7.33363 16.664 7.91333C16.664 8.49304 16.5893 8.81602 16.4753 9.07375L16.4753 9.07378M16.4753 6.75292L16.4753 9.07378M16.4753 9.07378C16.3505 9.35611 16.1599 9.61024 15.8102 10.0642L15.929 10.1558M16.4753 9.07378L15.929 10.1558M15.929 10.1558L15.8102 10.0642C14.5354 11.7191 12.4775 13.4915 9.5 13.4915M15.929 10.1558L9.5 13.4915M9.5 13.4915C6.52243 13.4915 4.4646 11.7191 3.18984 10.0642M9.5 13.4915L3.18984 10.0642M3.18984 10.0642C2.84013 9.61025 2.64954 9.35612 2.52468 9.07378M3.18984 10.0642L2.52468 9.07378M2.52468 9.07378C2.41073 8.81602 2.33605 8.49303 2.33605 7.91333C2.33605 7.33365 2.41073 7.01066 2.52467 6.75291L2.52468 9.07378ZM1.98717 10.9376L1.9872 10.9376L2.01232 10.9702C3.42117 12.7991 5.86423 14.9767 9.5 14.9767C13.1357 14.9767 15.5788 12.7992 16.9876 10.9702C16.9877 10.9702 16.9877 10.9702 16.9877 10.9702L17.0128 10.9376L17.0128 10.9376L17.0174 10.9316C17.3294 10.5268 17.6298 10.137 17.8346 9.67396C18.0567 9.17163 18.15 8.6289 18.15 7.91333C18.15 7.19777 18.0567 6.65504 17.8346 6.1527C17.6299 5.68972 17.3296 5.30007 17.0175 4.89525L17.0128 4.88912L17.0128 4.88907L16.9877 4.85647L16.9877 4.85646C15.5788 3.02752 13.1357 0.85 9.5 0.85C5.86424 0.85 3.42118 3.02751 2.01233 4.85644C2.01233 4.85645 2.01232 4.85645 2.01232 4.85646L1.98716 4.8891L1.98716 4.8891L1.98158 4.89634C1.66996 5.30074 1.36991 5.69013 1.1654 6.15271C0.943319 6.65504 0.85 7.19776 0.85 7.91333C0.85 8.62891 0.943319 9.17163 1.1654 9.67395C1.36995 10.1366 1.67008 10.5261 1.98178 10.9306L1.98717 10.9376Z" stroke="currentColor" stroke-opacity="0.7" stroke-width="0.3"></path>
      </g>
    </g>
  </symbol>
  <symbol xmlns="http://www.w3.org/2000/svg" fill="currentColor" viewBox="0 0 24 24" id="heart">
    <path d="m11.645 20.91-.007-.003-.022-.012a15.247 15.247 0 0 1-.383-.218 25.18 25.18 0 0 1-4.244-3.17C4.688 15.36 2.25 12.174 2.25 8.25 2.25 5.322 4.714 3 7.688 3A5.5 5.5 0 0 1 12 5.052 5.5 5.5 0 0 1 16.313 3c2.973 0 5.437 2.322 5.437 5.25 0 3.925-2.438 7.111-4.739 9.256a25.175 25.175 0 0 1-4.244 3.17 15.247 15.247 0 0 1-.383.219l-.022.012-.007.004-.003.001a.752.752 0 0 1-.704 0l-.003-.001Z"></path>
  </symbol>
  <symbol xmlns="http://www.w3.org/2000/svg" fill="none" stroke-width="1.5" stroke="currentColor" viewBox="0 0 24 24" id="ellipsis-horizontal">
    <path stroke-linecap="round" stroke-linejoin="round" d="M6.75 12a.75.75 0 1 1-1.5 0 .75.75 0 0 1 1.5 0ZM12.75 12a.75.75 0 1 1-1.5 0 .75.75 0 0 1 1.5 0ZM18.75 12a.75.75 0 1 1-1.5 0 .75.75 0 0 1 1.5 0Z"></path>
  </symbol>
  <symbol xmlns="http://www.w3.org/2000/svg" fill="none" stroke-width="1.5" stroke="currentColor" viewBox="0 0 24 24" id="pause">
    <path stroke-linecap="round" stroke-linejoin="round" d="M15.75 5.25v13.5m-7.5-13.5v13.5"></path>
  </symbol>
  <symbol xmlns="http://www.w3.org/2000/svg" fill="none" stroke-width="1.5" stroke="currentColor" viewBox="0 0 24 24" id="play">
    <path stroke-linecap="round" stroke-linejoin="round" d="M5.25 5.653c0-.856.917-1.398 1.667-.986l11.54 6.347a1.125 1.125 0 0 1 0 1.972l-11.54 6.347a1.125 1.125 0 0 1-1.667-.986V5.653Z"></path>
  </symbol>
  <symbol xmlns="http://www.w3.org/2000/svg" fill="none" stroke-width="1.5" stroke="currentColor" viewBox="0 0 24 24" id="speaker-x-mark">
    <path stroke-linecap="round" stroke-linejoin="round" d="M17.25 9.75 19.5 12m0 0 2.25 2.25M19.5 12l2.25-2.25M19.5 12l-2.25 2.25m-10.5-6 4.72-4.72a.75.75 0 0 1 1.28.53v15.88a.75.75 0 0 1-1.28.53l-4.72-4.72H4.51c-.88 0-1.704-.507-1.938-1.354A9.009 9.009 0 0 1 2.25 12c0-.83.112-1.633.322-2.396C2.806 8.756 3.63 8.25 4.51 8.25H6.75Z"></path>
  </symbol>
  <symbol xmlns="http://www.w3.org/2000/svg" fill="none" stroke-width="1.5" stroke="currentColor" viewBox="0 0 24 24" id="speaker-wave">
    <path stroke-linecap="round" stroke-linejoin="round" d="M19.114 5.636a9 9 0 0 1 0 12.728M16.463 8.288a5.25 5.25 0 0 1 0 7.424M6.75 8.25l4.72-4.72a.75.75 0 0 1 1.28.53v15.88a.75.75 0 0 1-1.28.53l-4.72-4.72H4.51c-.88 0-1.704-.507-1.938-1.354A9.009 9.009 0 0 1 2.25 12c0-.83.112-1.633.322-2.396C2.806 8.756 3.63 8.25 4.51 8.25H6.75Z"></path>
  </symbol>
    <symbol xmlns="http://www.w3.org/2000/svg" fill="none" stroke-width="1.5" stroke="currentColor" viewBox="0 0 24 24" id="flag">
    <path stroke-linecap="round" stroke-linejoin="round" d="M3 3v1.5M3 21v-6m0 0 2.77-.693a9 9 0 0 1 6.208.682l.108.054a9 9 0 0 0 6.086.71l3.114-.732a48.524 48.524 0 0 1-.005-10.499l-3.11.732a9 9 0 0 1-6.085-.711l-.108-.054a9 9 0 0 0-6.208-.682L3 4.5M3 15V4.5"></path>
  </symbol>
    <symbol xmlns="http://www.w3.org/2000/svg" fill="none" stroke-width="1.5" stroke="currentColor" viewBox="0 0 24 24" id="trash">
    <path stroke-linecap="round" stroke-linejoin="round" d="m14.74 9-.346 9m-4.788 0L9.26 9m9.968-3.21c.342.052.682.107 1.022.166m-1.022-.165L18.16 19.673a2.25 2.25 0 0 1-2.244 2.077H8.084a2.25 2.25 0 0 1-2.244-2.077L4.772 5.79m14.456 0a48.108 48.108 0 0 0-3.478-.397m-12 .562c.34-.059.68-.114 1.022-.165m0 0a48.11 48.11 0 0 1 3.478-.397m7.5 0v-.916c0-1.18-.91-2.164-2.09-2.201a51.964 51.964 0 0 0-3.32 0c-1.18.037-2.09 1.022-2.09 2.201v.916m7.5 0a48.667 48.667 0 0 0-7.5 0"></path>
  </symbol>
   <symbol xmlns="http://www.w3.org/2000/svg" fill="none" stroke-width="1.5" stroke="currentColor" viewBox="0 0 24 24" id="share">
    <path stroke-linecap="round" stroke-linejoin="round" d="M7.217 10.907a2.25 2.25 0 1 0 0 2.186m0-2.186c.18.324.283.696.283 1.093s-.103.77-.283 1.093m0-2.186 9.566-5.314m-9.566 7.5 9.566 5.314m0 0a2.25 2.25 0 1 0 3.935 2.186 2.25 2.25 0 0 0-3.935-2.186Zm0-12.814a2.25 2.25 0 1 0 3.933-2.185 2.25 2.25 0 0 0-3.933 2.185Z"></path>
  </symbol>
  <symbol xmlns="http://www.w3.org/2000/svg" fill="none" stroke-width="1.5" stroke="currentColor" viewBox="0 0 24 24" id="star">
    <path stroke-linecap="round" stroke-linejoin="round" d="M11.48 3.499a.562.562 0 0 1 1.04 0l2.125 5.111a.563.563 0 0 0 .475.345l5.518.442c.499.04.701.663.321.988l-4.204 3.602a.563.563 0 0 0-.182.557l1.285 5.385a.562.562 0 0 1-.84.61l-4.725-2.885a.562.562 0 0 0-.586 0L6.982 20.54a.562.562 0 0 1-.84-.61l1.285-5.386a.562.562 0 0 0-.182-.557l-4.204-3.602a.562.562 0 0 1 .321-.988l5.518-.442a.563.563 0 0 0 .475-.345L11.48 3.5Z"></path>
  </symbol>
  <symbol xmlns="http://www.w3.org/2000/svg" fill="currentColor" viewBox="0 0 24 24" id="star-solid">
    <path fill-rule="evenodd" d="M10.788 3.21c.448-1.077 1.976-1.077 2.424 0l2.082 5.006 5.404.434c1.164.093 1.636 1.545.749 2.305l-4.117 3.527 1.257 5.273c.271 1.136-.964 2.033-1.96 1.425L12 18.354 7.373 21.18c-.996.608-2.231-.29-1.96-1.425l1.257-5.273-4.117-3.527c-.887-.76-.415-2.212.749-2.305l5.404-.434 2.082-5.005Z" clip-rule="evenodd"></path>
  </symbol>
  <symbol xmlns="http://www.w3.org/2000/svg" fill="none" stroke-width="1.5" stroke="currentColor" viewBox="0 0 24 24" id="delete">
    <path stroke-linecap="round" stroke-linejoin="round" d="m14.74 9-.346 9m-4.788 0L9.26 9m9.968-3.21c.342.052.682.107 1.022.166m-1.022-.165L18.16 19.673a2.25 2.25 0 0 1-2.244 2.077H8.084a2.25 2.25 0 0 1-2.244-2.077L4.772 5.79m14.456 0a48.108 48.108 0 0 0-3.478-.397m-12 .562c.34-.059.68-.114 1.022-.165m0 0a48.11 48.11 0 0 1 3.478-.397m7.5 0v-.916c0-1.18-.91-2.164-2.09-2.201a51.964 51.964 0 0 0-3.32 0c-1.18.037-2.09 1.022-2.09 2.201v.916m7.5 0a48.667 48.667 0 0 0-7.5 0"></path>
  </symbol>
  <symbol xmlns="http://www.w3.org/2000/svg" fill="none" stroke-width="1.5" stroke="currentColor" viewBox="0 0 24 24" id="edit">
    <path stroke-linecap="round" stroke-linejoin="round" d="m16.862 4.487 1.687-1.688a1.875 1.875 0 1 1 2.652 2.652L10.582 16.07a4.5 4.5 0 0 1-1.897 1.13L6 18l.8-2.685a4.5 4.5 0 0 1 1.13-1.897l8.932-8.931Zm0 0L19.5 7.125M18 14v4.75A2.25 2.25 0 0 1 15.75 21H5.25A2.25 2.25 0 0 1 3 18.75V8.25A2.25 2.25 0 0 1 5.25 6H10"></path>
  </symbol>
</svg>