<svg width="34" height="34" viewBox="0 0 34 34" fill="none" xmlns="http://www.w3.org/2000/svg">
<g id="Group 47741">
<path id="Vector" d="M11.5874 26.3857L8.99324 24.2224C6.80204 22.3951 5.70634 21.4814 5.22884 20.1945C4.75126 18.9078 4.97175 17.463 5.41251 14.5732L5.66676 12.9067C6.03757 10.4756 6.22297 9.26006 6.97295 8.36071C7.72294 7.46137 8.8854 7.06062 11.2104 6.25907L12.804 5.70963C15.5676 4.75691 16.9493 4.28047 18.301 4.51906C19.6526 4.75765 20.7483 5.67138 22.9395 7.49867L25.5337 9.66199C29.3461 12.8412 31.2523 14.4309 31.4155 16.6431C31.5787 18.8554 29.9351 20.8263 26.6479 24.7681C23.3608 28.7099 21.7172 30.6808 19.5116 30.9177C17.306 31.1546 15.3998 29.565 11.5874 26.3857Z" stroke="#707070" stroke-opacity="0.7" stroke-width="2.1" stroke-linecap="round"/>
<path id="Vector_2" d="M25.4248 16.2344L18.0375 25.0929" stroke="#707070" stroke-opacity="0.7" stroke-width="2.1" stroke-linecap="round"/>
</g>
</svg>
