<svg width="42" height="42" viewBox="0 0 42 42" fill="none" xmlns="http://www.w3.org/2000/svg">
<path id="Vector" d="M21 0C9.40201 0 0 9.40201 0 21C0 32.598 9.40201 42 21 42C32.598 42 42 32.598 42 21C42 9.40201 32.598 0 21 0ZM21.4041 17.8329C21.411 17.8332 21.4175 17.8346 21.4246 17.8349C21.3528 17.5271 21.3157 17.2062 21.3157 16.8766C21.3157 14.5546 23.1984 12.6719 25.5207 12.6719C26.73 12.6719 27.8228 13.1825 28.5899 13.9998C29.3774 13.8447 30.1225 13.5754 30.8153 13.2186C30.9614 13.1477 31.1078 13.0773 31.2517 12.9992C31.0024 13.7649 30.5344 14.4276 29.9276 14.9296C29.7632 15.0589 29.5944 15.1837 29.4087 15.2859C29.4213 15.2845 29.4336 15.2817 29.4462 15.2801C29.4339 15.2878 29.4236 15.2982 29.4111 15.3057C30.1003 15.2233 30.7612 15.0554 31.3889 14.8183C31.5296 14.7697 31.6701 14.7206 31.8095 14.6664C31.2482 15.4997 30.5419 16.2328 29.728 16.8204C29.736 17.0006 29.7401 17.1819 29.7401 17.3644C29.7401 22.9208 25.5107 29.328 17.7763 29.328C15.4018 29.328 13.1915 28.632 11.3306 27.439C11.6596 27.4778 11.9944 27.4976 12.3338 27.4976C13.9036 27.4976 15.3701 27.0654 16.6309 26.3213C16.9484 26.1384 17.259 25.9407 17.5556 25.7171C17.5476 25.717 17.5403 25.715 17.5322 25.7148C17.5399 25.7088 17.5483 25.7037 17.5559 25.6977C15.9627 25.6683 14.5877 24.7511 13.8995 23.4216C13.7969 23.2174 13.7091 23.0035 13.6399 22.7792C13.8931 22.8268 14.1523 22.8528 14.4192 22.8528C14.6974 22.8528 14.966 22.8171 15.2289 22.7656C15.3271 22.7519 15.4263 22.7404 15.5231 22.7245C15.5103 22.7218 15.4991 22.7163 15.4863 22.7136C15.4996 22.7101 15.5138 22.709 15.527 22.7053C13.6034 22.3191 12.1539 20.6195 12.1539 18.5823C12.1539 18.5662 12.1541 18.5505 12.1542 18.5347L12.1562 18.5302C12.6091 18.7815 13.1154 18.9479 13.6516 19.0175C13.7836 19.0395 13.9159 19.0598 14.048 19.0714C14.039 19.0653 14.0312 19.0579 14.0223 19.0518C14.0347 19.0523 14.0466 19.0548 14.0589 19.0552C12.9307 18.3013 12.1884 17.014 12.1884 15.5553C12.1884 14.8874 12.3514 14.2602 12.6286 13.6995C12.6728 13.6151 12.7121 13.529 12.7629 13.4473C14.6259 15.7296 17.317 17.3004 20.3755 17.7252C20.7167 17.7749 21.059 17.8191 21.4052 17.8391C21.4047 17.8371 21.4046 17.8349 21.4041 17.8329Z" fill="url(#paint0_linear_244_962)"/>
<defs>
<linearGradient id="paint0_linear_244_962" x1="21" y1="0" x2="21" y2="42" gradientUnits="userSpaceOnUse">
<stop stop-color="#4C0497"/>
<stop offset="1" stop-color="#4C0497" stop-opacity="0.5"/>
</linearGradient>
</defs>
</svg>
