<svg width="22" height="22" viewBox="0 0 22 22" fill="none" xmlns="http://www.w3.org/2000/svg">
<g id="Group 1342">
<path id="Vector" fill-rule="evenodd" clip-rule="evenodd" d="M8.8923 9.82137C9.36464 9.51427 10.0007 9.45825 10.5561 9.79933L14.0291 11.9318C14.5825 12.2717 14.826 12.8591 14.826 13.3925C14.826 13.9259 14.5825 14.5134 14.0291 14.8531L10.5561 16.9857C10.0007 17.3267 9.36464 17.2708 8.8923 16.9636C8.42807 16.6617 8.13037 16.1301 8.13037 15.525V11.26C8.13037 10.6549 8.42807 10.1233 8.8923 9.82137ZM9.74031 11.1007C9.72136 11.113 9.67552 11.1582 9.67552 11.26V15.525C9.67552 15.6267 9.72136 15.6719 9.74031 15.6843L9.74165 15.6851L13.2149 13.5524C13.2368 13.539 13.2809 13.4928 13.2809 13.3925C13.2809 13.2921 13.2368 13.2459 13.2149 13.2325L9.74196 11.1001L9.74031 11.1007Z" fill="white"/>
<path id="Vector_2" fill-rule="evenodd" clip-rule="evenodd" d="M7.62258 7.44003e-06C7.39762 -5.39553e-05 7.22514 -0.000105135 7.07436 0.0160725C5.68871 0.164782 4.62813 1.30264 4.56376 2.681C3.34519 3.04479 2.47687 4.17232 2.46121 5.46551C1.84641 5.65005 1.31612 5.94108 0.882002 6.41C0.214851 7.13063 0.00810214 8.01873 0.000233309 9.05612C-0.00733877 10.0535 0.17038 11.3138 0.391076 12.879L0.840274 16.065C1.01281 17.2889 1.15296 18.2831 1.37105 19.0622C1.5992 19.8774 1.9355 20.548 2.55817 21.0636C3.17589 21.575 3.90876 21.7956 4.77498 21.8995C5.61256 22 6.66623 22 7.97813 22H14.0218C15.3337 22 16.3874 22 17.225 21.8995C18.0912 21.7956 18.8241 21.575 19.4418 21.0636C20.0645 20.548 20.4007 19.8774 20.6289 19.0622C20.847 18.2831 20.9872 17.2889 21.1597 16.065L21.6089 12.879C21.8296 11.3138 22.0073 10.0535 21.9998 9.05612C21.9919 8.01873 21.7851 7.13063 21.1179 6.41C20.6838 5.94097 20.1533 5.64991 19.5383 5.46539C19.5226 4.17232 18.6544 3.04491 17.4359 2.68106C17.3716 1.30267 16.311 0.164782 14.9254 0.0160725C14.7746 -0.000105135 14.6021 -5.39553e-05 14.3771 7.44003e-06H7.62258ZM17.9689 5.1959C17.8286 4.57414 17.2731 4.09303 16.5887 4.09303H5.41083C4.72637 4.09303 4.17097 4.57415 4.03062 5.19594C4.97794 5.11627 6.13925 5.11628 7.53723 5.11629H14.4627C15.8604 5.11628 17.0216 5.11627 17.9689 5.1959ZM15.8786 2.55815C15.7695 2.02229 15.3246 1.60262 14.7616 1.5422C14.704 1.53602 14.6219 1.53489 14.3346 1.53489H7.66519C7.3778 1.53489 7.29573 1.53602 7.23814 1.5422C6.67514 1.60262 6.23021 2.02229 6.12121 2.55815H15.8786ZM2.00831 7.45274C2.31825 7.11795 2.78434 6.89589 3.68998 6.77543C4.61207 6.65279 5.84643 6.65117 7.59499 6.65117H14.405C16.1535 6.65117 17.3879 6.65279 18.31 6.77543C19.2156 6.89589 19.6817 7.11795 19.9916 7.45274C20.2944 7.77974 20.4585 8.22474 20.4649 9.06778C20.4715 9.93765 20.3118 11.0847 20.0801 12.7276L19.6474 15.7973C19.4655 17.0875 19.3381 17.9796 19.1508 18.6485C18.9705 19.2927 18.7583 19.6368 18.463 19.8813C18.1627 20.13 17.7594 20.2895 17.0421 20.3756C16.3067 20.4639 15.3452 20.4651 13.9721 20.4651H8.0278C6.6547 20.4651 5.69331 20.4639 4.95786 20.3756C4.24054 20.2895 3.83735 20.13 3.53702 19.8813C3.24162 19.6368 3.02942 19.2927 2.84912 18.6485C2.66189 17.9796 2.5345 17.0875 2.35259 15.7973L1.91979 12.7276C1.68817 11.0847 1.52846 9.93765 1.53506 9.06778C1.54147 8.22474 1.70557 7.77974 2.00831 7.45274Z" fill="white"/>
</g>
</svg>
