<svg width="18" height="25" viewBox="0 0 18 25" fill="none" xmlns="http://www.w3.org/2000/svg">
<g id="Group 47726">
<g id="Group 47725">
<path id="Vector" d="M8.85123 11.1553C8.73602 11.144 8.59778 11.144 8.47105 11.1553C5.72913 11.0642 3.55176 8.84369 3.55176 6.11071C3.55176 3.32079 5.83281 1.05469 8.6669 1.05469C11.4894 1.05469 13.782 3.32079 13.782 6.11071C13.7705 8.84369 11.5931 11.0642 8.85123 11.1553Z" stroke="#707070" stroke-opacity="0.7" stroke-width="1.7" stroke-linecap="round" stroke-linejoin="round"/>
<path id="Vector_2" d="M3.09097 15.3559C0.30301 17.2007 0.30301 20.2069 3.09097 22.0403C6.2591 24.1356 11.4549 24.1356 14.623 22.0403C17.411 20.1956 17.411 17.1893 14.623 15.3559C11.4664 13.272 6.27062 13.272 3.09097 15.3559Z" stroke="#707070" stroke-opacity="0.7" stroke-width="1.7" stroke-linecap="round" stroke-linejoin="round"/>
</g>
</g>
</svg>
