<svg width="24" height="24" viewBox="0 0 24 24" fill="none" xmlns="http://www.w3.org/2000/svg">
<g id="Group 1087">
<path id="Vector" fill-rule="evenodd" clip-rule="evenodd" d="M9.70082 10.7117C10.2161 10.3767 10.91 10.3156 11.5158 10.6877L15.3046 13.014C15.9083 13.3848 16.174 14.0256 16.174 14.6075C16.174 15.1894 15.9083 15.8303 15.3046 16.2009L11.5158 18.5274C10.91 18.8993 10.2161 18.8384 9.70082 18.5032C9.19439 18.1739 8.86963 17.594 8.86963 16.9339V12.2811C8.86963 11.6211 9.19439 11.0411 9.70082 10.7117ZM10.6259 12.1074C10.6053 12.1208 10.5552 12.1701 10.5552 12.2811V16.9339C10.5552 17.0448 10.6053 17.0941 10.6259 17.1076L10.6274 17.1085L14.4164 14.7819C14.4403 14.7674 14.4884 14.7169 14.4884 14.6075C14.4884 14.498 14.4403 14.4476 14.4164 14.433L10.6277 12.1067L10.6259 12.1074Z" fill="#707070" fill-opacity="0.7"/>
<path id="Vector_2" fill-rule="evenodd" clip-rule="evenodd" d="M8.31554 8.11639e-06C8.07013 -5.88604e-05 7.88197 -0.000114693 7.71748 0.0175337C6.20587 0.179763 5.04887 1.42106 4.97865 2.92473C3.6493 3.32159 2.70204 4.55162 2.68496 5.96238C2.01427 6.16369 1.43577 6.48118 0.962184 6.99273C0.234383 7.77887 0.00883869 8.74771 0.000254519 9.8794C-0.00800594 10.9674 0.185869 12.3424 0.426628 14.0498L0.916663 17.5255C1.10488 18.8606 1.25777 19.9452 1.49569 20.7952C1.74458 21.6844 2.11146 22.416 2.79073 22.9785C3.46461 23.5364 4.2641 23.777 5.20907 23.8904C6.12279 24 7.27226 24 8.70341 24H15.2965C16.7276 24 17.8772 24 18.7909 23.8904C19.7359 23.777 20.5354 23.5364 21.2093 22.9785C21.8885 22.416 22.2553 21.6844 22.5043 20.7952C22.7421 19.9452 22.8951 18.8606 23.0833 17.5255L23.5733 14.0498C23.8141 12.3424 24.008 10.9674 23.9997 9.8794C23.9911 8.74771 23.7656 7.77887 23.0377 6.99273C22.5641 6.48106 21.9854 6.16354 21.3145 5.96224C21.2973 4.55162 20.3503 3.32172 19.021 2.92479C18.9508 1.4211 17.7938 0.179763 16.2822 0.0175337C16.1177 -0.000114693 15.9296 -5.88604e-05 15.6841 8.11639e-06H8.31554ZM19.6024 5.66825C19.4494 4.98996 18.8434 4.46512 18.0968 4.46512H5.90273C5.15604 4.46512 4.55015 4.98998 4.39704 5.66829C5.43048 5.58138 6.69736 5.58139 8.22243 5.5814H15.7775C17.3023 5.58139 18.5691 5.58138 19.6024 5.66825ZM17.3221 2.79071C17.2031 2.20613 16.7177 1.74831 16.1035 1.6824C16.0407 1.67565 15.9512 1.67443 15.6377 1.67443H8.36202C8.0485 1.67443 7.95898 1.67565 7.89616 1.6824C7.28197 1.74831 6.79659 2.20613 6.67768 2.79071H17.3221ZM2.19088 8.13026C2.529 7.76503 3.03746 7.52279 4.02543 7.39138C5.03135 7.25759 6.37793 7.25582 8.28545 7.25582H15.7145C17.622 7.25582 18.9686 7.25759 19.9746 7.39138C20.9625 7.52279 21.4709 7.76503 21.809 8.13026C22.1394 8.48699 22.3184 8.97245 22.3253 9.89213C22.3326 10.8411 22.1583 12.0924 21.9056 13.8846L21.4335 17.2334C21.2351 18.6409 21.0961 19.6141 20.8918 20.3439C20.6951 21.0465 20.4636 21.422 20.1414 21.6887C19.8138 21.96 19.3739 22.134 18.5914 22.2279C17.7891 22.3242 16.7403 22.3256 15.2423 22.3256H8.7576C7.25968 22.3256 6.21089 22.3242 5.40858 22.2279C4.62604 22.134 4.1862 21.96 3.85857 21.6887C3.53631 21.422 3.30483 21.0465 3.10813 20.3439C2.90388 19.6141 2.76491 18.6409 2.56647 17.2334L2.09431 13.8846C1.84164 12.0924 1.66742 10.8411 1.67462 9.89213C1.6816 8.97245 1.86062 8.48699 2.19088 8.13026Z" fill="#707070" fill-opacity="0.7"/>
</g>
</svg>
