<svg width="21" height="15" viewBox="0 0 21 15" fill="none" xmlns="http://www.w3.org/2000/svg">
<path id="Vector" fill-rule="evenodd" clip-rule="evenodd" d="M0.783691 4.7887C0.783691 2.5625 2.57334 0.757812 4.78099 0.757812H11.7763C13.9839 0.757812 15.7736 2.5625 15.7736 4.7887V4.86096L18.9734 3.00612C19.7728 2.5427 20.7702 3.12463 20.7702 4.05451V11.5896C20.7702 12.4678 19.8711 13.0532 19.0773 12.6917L15.7591 11.1802C15.5855 13.2448 13.8686 14.8659 11.7763 14.8659H4.78099C2.57334 14.8659 0.783691 13.0612 0.783691 10.835V4.7887ZM15.7736 8.97518L18.7715 10.3408V5.44782L15.7736 7.18567V8.97518ZM13.7749 4.7887C13.7749 3.6756 12.8801 2.77326 11.7763 2.77326H4.78099C3.67717 2.77326 2.78234 3.6756 2.78234 4.7887V10.835C2.78234 11.9482 3.67717 12.8505 4.78099 12.8505H11.7763C12.8801 12.8505 13.7749 11.9482 13.7749 10.835V4.7887Z" fill="url(#paint0_linear_244_23050)"/>
<defs>
<linearGradient id="paint0_linear_244_23050" x1="10.7769" y1="0.757812" x2="10.7769" y2="14.8659" gradientUnits="userSpaceOnUse">
<stop stop-color="#4C0497"/>
<stop offset="1" stop-color="#4C0497" stop-opacity="0.5"/>
</linearGradient>
</defs>
</svg>
