<svg width="67" height="67" viewBox="0 0 67 67" fill="none" xmlns="http://www.w3.org/2000/svg">
<g id="Group 47659">
<circle id="Ellipse 42" cx="33.5" cy="33.5" r="33.5" fill="white"/>
<circle id="Ellipse 41" cx="33.5" cy="33.5" r="33.5" fill="url(#paint0_linear_244_978)"/>
<path id="Vector" d="M45.3514 21.502C43.8489 19.9892 42.0605 18.7901 40.0903 17.9743C38.1199 17.1585 36.0069 16.7424 33.8741 16.7501C31.0231 16.7529 28.2226 17.5043 25.7534 18.929C23.2842 20.3537 21.2329 22.4017 19.8049 24.868C18.3769 27.3342 17.6224 30.1322 17.6169 32.9815C17.6114 35.831 18.3551 38.6317 19.7735 41.1035L17.478 49.5217L26.086 47.2687C28.4629 48.5902 31.1337 49.2946 33.8536 49.3169C38.1775 49.3171 42.3263 47.6103 45.3969 44.5683C48.4677 41.5265 50.2119 37.3954 50.2498 33.0745C50.2354 30.9183 49.7952 28.7862 48.9547 26.8004C48.1142 24.8145 46.8896 23.014 45.3514 21.502ZM33.8741 46.5109C31.451 46.5125 29.0722 45.8616 26.9878 44.6265L26.4959 44.3192L21.3926 45.6711L22.7453 40.6939L22.4174 40.1818C20.6737 37.369 20.023 34.0146 20.5884 30.7543C21.1538 27.494 22.8961 24.5542 25.4853 22.4918C28.0744 20.4293 31.3305 19.3875 34.6368 19.5637C37.943 19.7399 41.07 21.1219 43.4249 23.4478C45.9991 25.9634 47.4727 29.3948 47.5239 32.9926C47.4915 36.589 46.039 40.0272 43.4827 42.559C40.9265 45.0906 37.4731 46.5111 33.8741 46.5109ZM41.2729 36.3926C40.863 36.1878 38.875 35.2046 38.5061 35.0817C38.1371 34.9589 37.8502 34.8769 37.5838 35.2866C37.1829 35.8357 36.7517 36.3621 36.2926 36.8637C36.0671 37.1505 35.8212 37.1709 35.4113 36.8637C33.0742 35.9408 31.1272 34.2407 29.8981 32.0504C29.4677 31.3335 30.308 31.3745 31.0868 29.8383C31.1444 29.7275 31.1743 29.6046 31.1743 29.4798C31.1743 29.3551 31.1444 29.2322 31.0868 29.1214C31.0868 28.9166 30.1645 26.9093 29.8366 26.1105C29.5087 25.3117 29.1808 25.4346 28.9143 25.4141H28.115C27.9079 25.4173 27.7039 25.4646 27.5166 25.5529C27.3292 25.6412 27.1629 25.7685 27.0288 25.9262C26.5689 26.373 26.2102 26.9132 25.9769 27.5103C25.7435 28.1074 25.641 28.7476 25.6761 29.3877C25.8046 30.92 26.382 32.3803 27.3362 33.5865C29.0828 36.1997 31.4764 38.3165 34.284 39.7312C35.7566 40.5902 37.468 40.9495 39.1619 40.7553C39.7259 40.6435 40.2602 40.4143 40.7298 40.0825C41.1995 39.7509 41.5941 39.324 41.8877 38.83C42.1599 38.227 42.2456 37.5566 42.1337 36.9047C41.9492 36.6998 41.6828 36.5974 41.2729 36.3926Z" fill="white"/>
</g>
<defs>
<linearGradient id="paint0_linear_244_978" x1="33.5" y1="0" x2="33.5" y2="67" gradientUnits="userSpaceOnUse">
<stop stop-color="#4C0497"/>
<stop offset="1" stop-color="#4C0497" stop-opacity="0.5"/>
</linearGradient>
</defs>
</svg>
